<svg width="1494" height="1302" viewBox="0 0 1494 1302" fill="none" xmlns="http://www.w3.org/2000/svg">
<g clip-path="url(#clip0_407_499)">
<rect x="337.67" y="740.37" width="1011" height="638" rx="38" transform="rotate(-47 337.67 740.37)" fill="white"/>
<g clip-path="url(#clip1_407_499)">
<path d="M365.461 766.286C350.113 751.973 349.273 727.927 363.586 712.579L1001.25 28.7629C1015.57 13.4141 1039.61 12.5744 1054.96 26.8874L1465.98 410.17C1481.33 424.483 1482.17 448.529 1467.86 463.878L830.19 1147.69C815.877 1163.04 791.831 1163.88 776.482 1149.57L365.461 766.286Z" fill="url(#paint0_linear_407_499)"/>
<g filter="url(#filter0_f_407_499)">
<circle cx="1013.03" cy="386.366" r="252.5" transform="rotate(-47 1013.03 386.366)" fill="#3EE5FC"/>
</g>
<g opacity="0.3" filter="url(#filter1_f_407_499)">
<circle cx="504.632" cy="658.833" r="252.5" transform="rotate(-47 504.632 658.833)" fill="#2E9BFF"/>
</g>
<g filter="url(#filter2_f_407_499)">
<circle cx="1436.22" cy="388.569" r="252.5" transform="rotate(-47 1436.22 388.569)" fill="#ABE1FF"/>
</g>
<g filter="url(#filter3_f_407_499)">
<circle cx="1101.91" cy="945.755" r="275" transform="rotate(-47 1101.91 945.755)" fill="#2CE0B5"/>
</g>
<line x1="339.864" y1="742.416" x2="1029.36" y2="3.01743" stroke="white" stroke-opacity="0.2" stroke-width="2"/>
<line x1="350.103" y1="751.964" x2="1039.6" y2="12.5654" stroke="white" stroke-opacity="0.2" stroke-width="2"/>
<line x1="360.342" y1="761.512" x2="1049.84" y2="22.1134" stroke="white" stroke-opacity="0.2" stroke-width="2"/>
<line x1="370.581" y1="771.06" x2="1060.08" y2="31.6614" stroke="white" stroke-opacity="0.2" stroke-width="2"/>
<line x1="380.82" y1="780.608" x2="1070.32" y2="41.2093" stroke="white" stroke-opacity="0.2" stroke-width="2"/>
<line x1="391.059" y1="790.156" x2="1080.56" y2="50.7573" stroke="white" stroke-opacity="0.2" stroke-width="2"/>
<line x1="401.298" y1="799.704" x2="1090.8" y2="60.3053" stroke="white" stroke-opacity="0.2" stroke-width="2"/>
<line x1="411.537" y1="809.252" x2="1101.04" y2="69.8532" stroke="white" stroke-opacity="0.2" stroke-width="2"/>
<line x1="421.776" y1="818.8" x2="1111.28" y2="79.4012" stroke="white" stroke-opacity="0.2" stroke-width="2"/>
<line x1="432.015" y1="828.348" x2="1121.52" y2="88.9492" stroke="white" stroke-opacity="0.2" stroke-width="2"/>
<line x1="442.254" y1="837.896" x2="1131.75" y2="98.4972" stroke="white" stroke-opacity="0.2" stroke-width="2"/>
<line x1="452.493" y1="847.444" x2="1141.99" y2="108.045" stroke="white" stroke-opacity="0.2" stroke-width="2"/>
<line x1="462.732" y1="856.992" x2="1152.23" y2="117.593" stroke="white" stroke-opacity="0.2" stroke-width="2"/>
<line x1="472.97" y1="866.54" x2="1162.47" y2="127.141" stroke="white" stroke-opacity="0.2" stroke-width="2"/>
<line x1="483.209" y1="876.088" x2="1172.71" y2="136.689" stroke="white" stroke-opacity="0.2" stroke-width="2"/>
<line x1="493.448" y1="885.636" x2="1182.95" y2="146.237" stroke="white" stroke-opacity="0.2" stroke-width="2"/>
<line x1="503.687" y1="895.184" x2="1193.19" y2="155.785" stroke="white" stroke-opacity="0.2" stroke-width="2"/>
<line x1="513.926" y1="904.732" x2="1203.43" y2="165.333" stroke="white" stroke-opacity="0.2" stroke-width="2"/>
<line x1="524.165" y1="914.28" x2="1213.67" y2="174.881" stroke="white" stroke-opacity="0.2" stroke-width="2"/>
<line x1="534.404" y1="923.828" x2="1223.9" y2="184.429" stroke="white" stroke-opacity="0.2" stroke-width="2"/>
<line x1="544.643" y1="933.376" x2="1234.14" y2="193.977" stroke="white" stroke-opacity="0.2" stroke-width="2"/>
<line x1="554.882" y1="942.924" x2="1244.38" y2="203.525" stroke="white" stroke-opacity="0.2" stroke-width="2"/>
<line x1="565.121" y1="952.472" x2="1254.62" y2="213.073" stroke="white" stroke-opacity="0.2" stroke-width="2"/>
<line x1="575.36" y1="962.019" x2="1264.86" y2="222.621" stroke="white" stroke-opacity="0.2" stroke-width="2"/>
<line x1="585.599" y1="971.567" x2="1275.1" y2="232.169" stroke="white" stroke-opacity="0.2" stroke-width="2"/>
<line x1="595.838" y1="981.115" x2="1285.34" y2="241.717" stroke="white" stroke-opacity="0.2" stroke-width="2"/>
<line x1="606.077" y1="990.663" x2="1295.58" y2="251.265" stroke="white" stroke-opacity="0.2" stroke-width="2"/>
<line x1="616.316" y1="1000.21" x2="1305.82" y2="260.813" stroke="white" stroke-opacity="0.2" stroke-width="2"/>
<line x1="626.555" y1="1009.76" x2="1316.06" y2="270.361" stroke="white" stroke-opacity="0.2" stroke-width="2"/>
<line x1="636.794" y1="1019.31" x2="1326.29" y2="279.909" stroke="white" stroke-opacity="0.2" stroke-width="2"/>
<line x1="647.033" y1="1028.86" x2="1336.53" y2="289.457" stroke="white" stroke-opacity="0.2" stroke-width="2"/>
<line x1="657.272" y1="1038.4" x2="1346.77" y2="299.005" stroke="white" stroke-opacity="0.2" stroke-width="2"/>
<line x1="667.511" y1="1047.95" x2="1357.01" y2="308.553" stroke="white" stroke-opacity="0.2" stroke-width="2"/>
<line x1="677.75" y1="1057.5" x2="1367.25" y2="318.101" stroke="white" stroke-opacity="0.2" stroke-width="2"/>
<line x1="687.988" y1="1067.05" x2="1377.49" y2="327.649" stroke="white" stroke-opacity="0.2" stroke-width="2"/>
<line x1="698.227" y1="1076.6" x2="1387.73" y2="337.197" stroke="white" stroke-opacity="0.2" stroke-width="2"/>
<line x1="708.466" y1="1086.14" x2="1397.97" y2="346.745" stroke="white" stroke-opacity="0.2" stroke-width="2"/>
<line x1="718.705" y1="1095.69" x2="1408.21" y2="356.293" stroke="white" stroke-opacity="0.2" stroke-width="2"/>
<line x1="728.944" y1="1105.24" x2="1418.44" y2="365.841" stroke="white" stroke-opacity="0.2" stroke-width="2"/>
<line x1="739.183" y1="1114.79" x2="1428.68" y2="375.389" stroke="white" stroke-opacity="0.2" stroke-width="2"/>
<line x1="749.422" y1="1124.34" x2="1438.92" y2="384.936" stroke="white" stroke-opacity="0.2" stroke-width="2"/>
<line x1="759.661" y1="1133.88" x2="1449.16" y2="394.484" stroke="white" stroke-opacity="0.2" stroke-width="2"/>
<line x1="769.9" y1="1143.43" x2="1459.4" y2="404.032" stroke="white" stroke-opacity="0.2" stroke-width="2"/>
<line x1="780.139" y1="1152.98" x2="1469.64" y2="413.58" stroke="white" stroke-opacity="0.2" stroke-width="2"/>
<line x1="790.378" y1="1162.53" x2="1479.88" y2="423.128" stroke="white" stroke-opacity="0.2" stroke-width="2"/>
<line x1="800.617" y1="1172.07" x2="1490.12" y2="432.676" stroke="white" stroke-opacity="0.2" stroke-width="2"/>
</g>
<circle cx="706.387" cy="955.675" r="14" transform="rotate(-47 706.387 955.675)" fill="white"/>
<circle cx="732.303" cy="927.884" r="14" transform="rotate(-47 732.303 927.884)" fill="white"/>
<circle cx="758.219" cy="900.092" r="14" transform="rotate(-47 758.219 900.092)" fill="white"/>
<circle cx="784.135" cy="872.301" r="14" transform="rotate(-47 784.135 872.301)" fill="white"/>
<circle cx="835.966" cy="816.718" r="14" transform="rotate(-47 835.966 816.718)" fill="white"/>
<circle cx="861.882" cy="788.926" r="14" transform="rotate(-47 861.882 788.926)" fill="white"/>
<circle cx="887.798" cy="761.135" r="14" transform="rotate(-47 887.798 761.135)" fill="white"/>
<circle cx="913.714" cy="733.344" r="14" transform="rotate(-47 913.714 733.344)" fill="white"/>
<circle cx="965.546" cy="677.761" r="14" transform="rotate(-47 965.546 677.761)" fill="white"/>
<circle cx="991.462" cy="649.969" r="14" transform="rotate(-47 991.462 649.969)" fill="white"/>
<circle cx="1017.38" cy="622.178" r="14" transform="rotate(-47 1017.38 622.178)" fill="white"/>
<circle cx="1043.29" cy="594.386" r="14" transform="rotate(-47 1043.29 594.386)" fill="white"/>
<path d="M1086.99 545.771C1082.77 541.839 1080.14 538.063 1079.09 534.444C1078.04 530.777 1079.15 527.201 1082.4 523.715C1085.65 520.229 1089.13 518.893 1092.83 519.707C1096.54 520.474 1100.5 522.823 1104.72 526.756C1108.99 530.735 1111.65 534.568 1112.73 538.257C1113.8 541.899 1112.71 545.463 1109.46 548.949C1106.21 552.435 1102.71 553.783 1098.98 552.994C1095.25 552.157 1091.25 549.75 1086.99 545.771ZM1100.9 530.852C1098.93 529.01 1097.13 527.587 1095.52 526.582C1093.92 525.553 1092.34 525.031 1090.76 525.015C1089.15 524.977 1087.63 525.726 1086.2 527.261C1084.77 528.797 1084.13 530.365 1084.28 531.963C1084.4 533.539 1085.02 535.097 1086.14 536.639C1087.28 538.155 1088.83 539.834 1090.81 541.676C1092.85 543.585 1094.69 545.066 1096.3 546.118C1097.92 547.17 1099.52 547.704 1101.1 547.72C1102.7 547.711 1104.22 546.938 1105.65 545.403C1107.09 543.867 1107.74 542.311 1107.61 540.735C1107.51 539.135 1106.88 537.565 1105.72 536.026C1104.55 534.486 1102.95 532.761 1100.9 530.852ZM1112.24 518.689C1108.02 514.756 1105.39 510.98 1104.35 507.361C1103.3 503.694 1104.4 500.118 1107.65 496.632C1110.9 493.146 1114.38 491.81 1118.09 492.624C1121.8 493.391 1125.76 495.74 1129.97 499.673C1134.24 503.652 1136.91 507.485 1137.98 511.174C1139.05 514.816 1137.96 518.38 1134.71 521.866C1131.46 525.352 1127.97 526.701 1124.24 525.911C1120.51 525.074 1116.51 522.667 1112.24 518.689ZM1126.16 503.769C1124.18 501.928 1122.39 500.504 1120.77 499.499C1119.18 498.47 1117.59 497.948 1116.01 497.932C1114.41 497.894 1112.89 498.643 1111.45 500.179C1110.02 501.714 1109.38 503.282 1109.53 504.88C1109.66 506.456 1110.28 508.014 1111.39 509.556C1112.53 511.072 1114.09 512.752 1116.06 514.593C1118.11 516.503 1119.94 517.983 1121.56 519.035C1123.18 520.087 1124.77 520.621 1126.36 520.637C1127.96 520.628 1129.48 519.856 1130.91 518.32C1132.34 516.784 1132.99 515.228 1132.87 513.652C1132.77 512.052 1132.13 510.482 1130.97 508.943C1129.81 507.403 1128.2 505.678 1126.16 503.769ZM1145.14 499.688L1141.99 496.755L1135.83 468.032L1140.53 462.986L1157.68 478.979L1160.85 475.578L1164.47 478.954L1161.3 482.355L1166.86 487.538L1163.04 491.633L1157.48 486.45L1145.14 499.688ZM1141.12 470.854L1145.99 491.521L1154.03 482.891L1141.12 470.854ZM1173.14 469.437C1173.3 465.21 1173.36 461.823 1173.32 459.277C1173.28 456.685 1172.97 454.278 1172.39 452.057C1171.82 449.837 1170.83 448.067 1169.41 446.749C1167.95 445.385 1166.48 444.67 1164.99 444.604C1163.52 444.514 1162.1 445.212 1160.71 446.699C1159.37 448.137 1158.79 449.691 1158.96 451.359C1159.14 452.98 1159.97 454.531 1161.46 456.012L1157.71 460.035C1155 457.37 1153.65 454.563 1153.66 451.615C1153.68 448.619 1154.83 445.89 1157.13 443.428C1159.61 440.771 1162.27 439.381 1165.12 439.257C1167.99 439.11 1170.65 440.173 1173.08 442.446C1174.84 444.083 1176.11 446.114 1176.91 448.539C1177.7 450.917 1178.16 453.33 1178.29 455.778C1178.42 458.179 1178.44 461.115 1178.35 464.585L1178.28 467.595L1189.09 456.003L1192.56 459.242L1175.99 477.014L1172.95 474.184L1173.14 469.437Z" fill="white"/>
<path d="M780.677 1019.26L795.333 1032.93C797.147 1034.62 798.062 1036.52 798.079 1038.61C798.113 1040.68 797.294 1042.62 795.621 1044.41C793.948 1046.21 792.066 1047.17 789.977 1047.3C787.905 1047.41 785.962 1046.62 784.149 1044.93L787.286 1041.56C788.201 1042.38 789.122 1042.82 790.049 1042.88C790.994 1042.92 791.866 1042.51 792.666 1041.66C793.467 1040.8 793.813 1039.9 793.704 1038.96C793.577 1038 793.074 1037.11 792.196 1036.3L777.54 1022.63L780.677 1019.26ZM797.99 1025.16C796.371 1023.65 795.247 1021.98 794.617 1020.15C794.005 1018.3 793.895 1016.49 794.285 1014.7C794.674 1012.88 795.523 1011.26 796.833 1009.86C798.015 1008.59 799.296 1007.72 800.676 1007.26C802.055 1006.76 803.378 1006.57 804.647 1006.7L802.307 1004.51L805.444 1001.15L821.563 1016.18L818.426 1019.55L816.027 1017.31C816.26 1018.58 816.175 1019.95 815.773 1021.39C815.371 1022.84 814.588 1024.19 813.424 1025.44C812.133 1026.82 810.599 1027.76 808.824 1028.26C807.03 1028.74 805.18 1028.73 803.276 1028.23C801.371 1027.69 799.608 1026.67 797.99 1025.16ZM810.351 1012.02C809.24 1010.98 808.056 1010.31 806.801 1010.02C805.563 1009.7 804.384 1009.72 803.264 1010.06C802.144 1010.4 801.184 1011 800.384 1011.86C799.584 1012.71 799.052 1013.71 798.79 1014.85C798.509 1015.98 798.559 1017.15 798.942 1018.39C799.323 1019.58 800.07 1020.7 801.181 1021.73C802.293 1022.77 803.477 1023.45 804.734 1023.79C806.009 1024.1 807.217 1024.1 808.356 1023.77C809.495 1023.41 810.455 1022.81 811.237 1021.98C812.037 1021.12 812.568 1020.12 812.83 1018.98C813.092 1017.84 813.023 1016.66 812.622 1015.45C812.22 1014.2 811.463 1013.05 810.351 1012.02ZM817.94 987.222C819.122 985.954 820.441 985.069 821.895 984.565C823.367 984.042 824.884 983.979 826.445 984.378C828.006 984.776 829.518 985.657 830.98 987.021L840.488 995.887L837.405 999.193L828.395 990.791C826.952 989.445 825.513 988.778 824.08 988.79C822.627 988.785 821.318 989.406 820.154 990.654C818.99 991.902 818.453 993.26 818.542 994.729C818.63 996.16 819.395 997.548 820.838 998.894L829.849 1007.3L826.739 1010.63L810.62 995.6L813.73 992.265L815.573 993.984C815.419 992.819 815.548 991.645 815.959 990.461C816.389 989.257 817.049 988.178 817.94 987.222ZM850.868 967.806C851.472 968.37 851.982 968.918 852.397 969.451L840.912 981.767C842.29 982.869 843.769 983.355 845.35 983.225C846.93 983.094 848.302 982.405 849.466 981.156C851.139 979.362 851.571 977.394 850.76 975.253L854.115 971.655C855.143 973.524 855.534 975.548 855.29 977.727C855.044 979.867 854.039 981.884 852.275 983.775C850.838 985.316 849.205 986.382 847.377 986.975C845.547 987.529 843.681 987.575 841.778 987.114C839.874 986.614 838.093 985.591 836.435 984.045C834.777 982.5 833.634 980.813 833.004 978.986C832.373 977.121 832.28 975.266 832.725 973.42C833.188 971.555 834.156 969.833 835.629 968.253C837.048 966.732 838.643 965.686 840.416 965.114C842.188 964.543 843.988 964.49 845.816 964.954C847.624 965.4 849.308 966.351 850.868 967.806ZM846.568 970.305C845.322 969.179 843.927 968.699 842.386 968.866C840.845 969.033 839.483 969.751 838.301 971.018C837.228 972.169 836.68 973.499 836.657 975.01C836.615 976.502 837.145 977.908 838.248 979.227L846.568 970.305ZM876.008 917.034L890.72 942.02L887.201 945.793L867.831 935.715L878.99 954.599L875.527 958.371L849.792 945.147L853.093 941.607L873.579 952.835L861.277 932.831L864.769 929.086L885.195 940.203L872.68 920.603L876.008 917.034ZM890.827 925.6C889.208 924.091 888.084 922.423 887.454 920.596C886.842 918.749 886.732 916.932 887.122 915.145C887.511 913.32 888.36 911.705 889.67 910.301C890.852 909.034 892.133 908.168 893.513 907.705C894.892 907.204 896.215 907.016 897.484 907.142L895.144 904.959L898.281 901.595L914.4 916.626L911.263 919.99L908.864 917.754C909.097 919.028 909.012 920.39 908.61 921.838C908.208 923.286 907.425 924.634 906.261 925.882C904.97 927.267 903.436 928.207 901.661 928.703C899.867 929.181 898.017 929.17 896.113 928.67C894.208 928.133 892.445 927.11 890.827 925.6ZM903.189 912.461C902.077 911.425 900.893 910.758 899.638 910.463C898.4 910.147 897.221 910.16 896.101 910.501C894.981 910.842 894.021 911.442 893.221 912.3C892.421 913.158 891.889 914.158 891.627 915.299C891.346 916.422 891.396 917.599 891.779 918.831C892.16 920.026 892.907 921.141 894.019 922.178C895.13 923.214 896.314 923.899 897.571 924.233C898.846 924.547 900.054 924.542 901.193 924.219C902.332 923.859 903.292 923.259 904.074 922.421C904.874 921.563 905.405 920.563 905.667 919.422C905.929 918.281 905.86 917.104 905.459 915.891C905.057 914.641 904.3 913.498 903.189 912.461ZM908.907 894.892C908.543 893.641 908.509 892.406 908.806 891.188C909.102 889.932 909.768 888.749 910.805 887.637L914.257 890.856L913.465 891.704C912.247 893.011 911.651 894.315 911.678 895.616C911.722 896.897 912.564 898.302 914.202 899.83L922.686 907.741L919.576 911.076L903.457 896.045L906.567 892.71L908.907 894.892ZM920.468 882.494C920.103 881.243 920.07 880.008 920.367 878.79C920.663 877.535 921.329 876.351 922.366 875.24L925.818 878.459L925.026 879.307C923.808 880.614 923.212 881.917 923.238 883.218C923.283 884.5 924.125 885.904 925.763 887.432L934.247 895.343L931.137 898.678L915.018 883.647L918.128 880.312L920.468 882.494ZM948.02 863.623C948.624 864.187 949.134 864.735 949.549 865.268L938.064 877.584C939.442 878.687 940.921 879.173 942.501 879.042C944.082 878.912 945.454 878.222 946.618 876.974C948.291 875.18 948.722 873.212 947.912 871.07L951.267 867.472C952.295 869.342 952.686 871.366 952.441 873.544C952.195 875.685 951.19 877.701 949.426 879.593C947.99 881.134 946.357 882.2 944.529 882.792C942.699 883.347 940.833 883.393 938.93 882.931C937.026 882.432 935.245 881.409 933.587 879.863C931.929 878.317 930.785 876.631 930.156 874.804C929.524 872.939 929.431 871.084 929.876 869.238C930.339 867.373 931.308 865.65 932.781 864.071C934.199 862.549 935.795 861.503 937.567 860.932C939.34 860.36 941.14 860.307 942.967 860.772C944.775 861.218 946.459 862.168 948.02 863.623ZM943.72 866.123C942.473 864.996 941.079 864.517 939.538 864.684C937.997 864.851 936.635 865.568 935.453 866.836C934.38 867.986 933.832 869.317 933.809 870.827C933.767 872.319 934.297 873.725 935.4 875.045L943.72 866.123ZM951.827 843.646C953.009 842.378 954.327 841.492 955.782 840.989C957.254 840.466 958.77 840.403 960.332 840.802C961.893 841.2 963.404 842.081 964.867 843.445L974.375 852.311L971.292 855.617L962.282 847.215C960.839 845.869 959.4 845.202 957.967 845.214C956.514 845.208 955.205 845.83 954.041 847.078C952.877 848.326 952.34 849.684 952.429 851.153C952.517 852.584 953.282 853.972 954.725 855.318L963.736 863.72L960.626 867.055L944.507 852.024L947.617 848.689L949.46 850.408C949.306 849.243 949.435 848.069 949.846 846.885C950.276 845.681 950.936 844.601 951.827 843.646Z" fill="white"/>
<path d="M1273.39 509.722C1270.01 506.576 1267.91 503.555 1267.07 500.66C1266.23 497.727 1267.12 494.866 1269.72 492.077C1272.32 489.288 1275.1 488.219 1278.07 488.871C1281.03 489.484 1284.2 491.364 1287.57 494.51C1290.99 497.693 1293.12 500.76 1293.98 503.711C1294.84 506.624 1293.96 509.475 1291.36 512.264C1288.76 515.053 1285.97 516.132 1282.99 515.5C1280 514.831 1276.8 512.905 1273.39 509.722ZM1284.52 497.787C1282.94 496.313 1281.5 495.175 1280.21 494.371C1278.94 493.548 1277.67 493.13 1276.4 493.117C1275.12 493.087 1273.9 493.686 1272.76 494.914C1271.61 496.143 1271.1 497.397 1271.22 498.676C1271.32 499.936 1271.82 501.183 1272.71 502.416C1273.62 503.629 1274.86 504.973 1276.44 506.446C1278.08 507.973 1279.55 509.158 1280.84 510C1282.14 510.841 1283.41 511.268 1284.68 511.281C1285.96 511.274 1287.18 510.656 1288.32 509.427C1289.47 508.199 1289.99 506.954 1289.89 505.693C1289.81 504.413 1289.3 503.157 1288.37 501.926C1287.44 500.694 1286.16 499.314 1284.52 497.787ZM1295.11 486.022C1292.2 487.105 1289.66 486.627 1287.47 484.59C1286.42 483.608 1285.7 482.445 1285.31 481.1C1284.93 479.755 1284.97 478.319 1285.45 476.793C1285.9 475.249 1286.84 473.717 1288.26 472.195C1289.66 470.694 1291.11 469.662 1292.62 469.1C1294.13 468.5 1295.57 468.346 1296.93 468.638C1298.3 468.929 1299.51 469.566 1300.57 470.548C1301.66 471.567 1302.36 472.75 1302.67 474.098C1302.98 475.407 1302.93 476.73 1302.53 478.065C1303.97 477.335 1305.46 477.085 1307 477.314C1308.52 477.525 1309.9 478.213 1311.15 479.377C1312.42 480.559 1313.24 481.927 1313.61 483.48C1313.99 485.032 1313.9 486.63 1313.35 488.271C1312.81 489.913 1311.85 491.465 1310.49 492.928C1309.13 494.391 1307.64 495.452 1306.04 496.112C1304.46 496.752 1302.88 496.939 1301.31 496.673C1299.73 496.407 1298.31 495.683 1297.04 494.501C1295.78 493.319 1294.98 491.979 1294.67 490.481C1294.35 488.982 1294.5 487.496 1295.11 486.022ZM1298 474.119C1296.91 473.101 1295.75 472.66 1294.53 472.797C1293.31 472.934 1292.14 473.597 1291.04 474.787C1289.94 475.957 1289.37 477.156 1289.32 478.384C1289.27 479.613 1289.8 480.745 1290.91 481.782C1291.89 482.691 1293.01 483.086 1294.29 482.966C1295.57 482.808 1296.73 482.173 1297.76 481.061C1298.8 479.95 1299.34 478.742 1299.39 477.438C1299.44 476.135 1298.98 475.028 1298 474.119ZM1300.28 483.407C1299.08 484.695 1298.42 486.048 1298.3 487.467C1298.18 488.849 1298.71 490.094 1299.9 491.204C1301.01 492.24 1302.28 492.696 1303.71 492.57C1305.12 492.427 1306.46 491.682 1307.71 490.336C1308.95 489.01 1309.57 487.64 1309.58 486.224C1309.6 484.789 1309.07 483.563 1307.98 482.544C1306.81 481.453 1305.53 481.007 1304.14 481.207C1302.77 481.387 1301.48 482.12 1300.28 483.407ZM1304.27 443.173L1329.59 481.657L1326.53 484.933L1301.19 446.479L1304.27 443.173ZM1333.67 457.92C1333.8 454.538 1333.85 451.829 1333.81 449.792C1333.78 447.718 1333.53 445.793 1333.07 444.016C1332.62 442.24 1331.82 440.824 1330.69 439.77C1329.52 438.678 1328.34 438.106 1327.15 438.054C1325.98 437.981 1324.84 438.54 1323.73 439.73C1322.65 440.88 1322.19 442.123 1322.33 443.458C1322.47 444.755 1323.13 445.996 1324.33 447.18L1321.33 450.398C1319.16 448.267 1318.08 446.021 1318.09 443.662C1318.1 441.266 1319.02 439.083 1320.86 437.113C1322.84 434.987 1324.98 433.875 1327.25 433.776C1329.55 433.658 1331.68 434.509 1333.63 436.327C1335.03 437.637 1336.05 439.262 1336.68 441.202C1337.32 443.104 1337.69 445.035 1337.79 446.993C1337.9 448.914 1337.91 451.262 1337.84 454.039L1337.78 456.446L1346.43 447.173L1349.21 449.764L1335.95 463.982L1333.52 461.718L1333.67 457.92ZM1351.41 436.382C1352.56 437.096 1353.7 437.368 1354.8 437.197C1355.91 437.026 1356.97 436.395 1357.99 435.303C1359.28 433.918 1359.68 432.395 1359.19 430.732C1358.7 429.07 1357.14 427.012 1354.5 424.557C1354.73 425.643 1354.63 426.788 1354.2 427.992C1353.77 429.158 1353.09 430.238 1352.16 431.233C1350.98 432.5 1349.65 433.415 1348.18 433.975C1346.69 434.518 1345.16 434.619 1343.58 434.278C1342 433.899 1340.48 433.027 1339.02 431.663C1336.87 429.663 1335.75 427.447 1335.64 425.017C1335.54 422.549 1336.51 420.213 1338.57 418.009C1341.04 415.357 1343.68 414.303 1346.49 414.846C1349.3 415.352 1352.53 417.305 1356.18 420.706C1358.7 423.052 1360.55 425.185 1361.75 427.105C1362.97 429.006 1363.51 430.855 1363.36 432.653C1363.22 434.45 1362.29 436.266 1360.58 438.099C1358.63 440.186 1356.59 441.286 1354.44 441.398C1352.29 441.511 1350.33 440.863 1348.54 439.453L1351.41 436.382ZM1349.9 428.029C1350.99 426.859 1351.48 425.605 1351.38 424.269C1351.27 422.896 1350.62 421.645 1349.41 420.518C1348.06 419.263 1346.68 418.651 1345.27 418.681C1343.85 418.674 1342.57 419.285 1341.43 420.513C1340.28 421.742 1339.76 423.081 1339.87 424.53C1339.98 425.941 1340.65 427.229 1341.9 428.393C1343.09 429.502 1344.39 430.079 1345.81 430.124C1347.23 430.131 1348.59 429.433 1349.9 428.029Z" fill="white"/>
<path d="M990.437 189.062L964.599 216.77L1015.19 263.948L1041.03 236.239L990.437 189.062Z" fill="#FF5A00"/>
<path d="M991.614 238.515C981.336 228.93 976.647 215.668 977.556 202.875C968.258 204.244 959.349 208.599 952.459 215.987C936.138 233.489 937.325 261.072 955.112 277.659C972.899 294.246 1000.5 293.505 1016.82 276.003C1023.71 268.615 1027.43 259.423 1028.15 250.053C1015.52 251.94 1001.89 248.1 991.614 238.515Z" fill="#EB001B"/>
<path d="M1050.59 175.269C1068.38 191.856 1069.57 219.439 1053.24 236.941C1046.35 244.329 1037.45 248.684 1028.15 250.053C1029.13 237.158 1024.37 223.998 1014.09 214.413C1003.81 204.828 990.254 201.076 977.556 202.875C978.263 193.515 981.986 184.323 988.876 176.935C1005.21 159.423 1032.9 158.77 1050.59 175.269Z" fill="#F79E1B"/>
<path d="M510.349 786.867L473.116 752.147L488.103 736.076C490.68 733.313 493.48 731.403 496.503 730.348C499.527 729.293 502.563 729.11 505.612 729.801C508.661 730.492 511.507 732.069 514.149 734.533C516.816 737.02 518.571 739.767 519.415 742.774C520.27 745.769 520.23 748.825 519.295 751.941C518.372 755.046 516.587 758.016 513.943 760.852L504.992 770.451L497.138 763.127L504.19 755.564C505.298 754.377 506.036 753.173 506.403 751.952C506.77 750.708 506.775 749.5 506.418 748.328C506.071 747.144 505.371 746.061 504.317 745.078C503.25 744.083 502.126 743.466 500.945 743.225C499.764 742.962 498.577 743.068 497.386 743.543C496.194 743.995 495.044 744.815 493.937 746.003L490.614 749.566L519.775 776.759L510.349 786.867ZM547.386 748.025C545.724 749.806 543.964 751.111 542.105 751.938C540.245 752.741 538.354 752.971 536.431 752.628C534.508 752.285 532.619 751.249 530.764 749.52C529.237 748.096 528.177 746.62 527.585 745.093C526.98 743.555 526.767 741.997 526.947 740.419C527.126 738.842 527.61 737.265 528.4 735.69C529.2 734.103 530.218 732.537 531.454 730.993C532.791 729.316 533.815 727.926 534.527 726.823C535.238 725.696 535.634 724.773 535.714 724.055C535.783 723.326 535.55 722.713 535.017 722.215L534.944 722.147C534.217 721.469 533.4 721.228 532.492 721.424C531.584 721.62 530.723 722.154 529.91 723.027C529.017 723.984 528.5 724.964 528.359 725.965C528.217 726.944 528.52 727.894 529.268 728.818L520.655 738.053C519.072 736.35 518.011 734.353 517.474 732.062C516.936 729.747 517.101 727.261 517.97 724.605C518.826 721.936 520.549 719.215 523.137 716.439C525.002 714.439 526.911 712.866 528.864 711.719C530.805 710.561 532.714 709.814 534.59 709.479C536.454 709.132 538.214 709.188 539.872 709.646C541.529 710.081 543.005 710.903 544.302 712.112L563.428 729.947L554.68 739.328L550.753 735.666L550.55 735.884C551.072 737.413 551.281 738.878 551.178 740.277C551.086 741.663 550.71 743.001 550.052 744.291C549.404 745.568 548.516 746.813 547.386 748.025ZM544.111 738.853C544.823 738.089 545.332 737.227 545.638 736.266C545.956 735.294 546.016 734.319 545.818 733.341C545.619 732.363 545.096 731.478 544.247 730.687L541.92 728.517C541.781 728.885 541.618 729.266 541.433 729.66C541.258 730.041 541.055 730.441 540.824 730.859C540.604 731.266 540.355 731.691 540.077 732.134C539.811 732.565 539.521 733.009 539.209 733.466C538.607 734.355 538.213 735.177 538.029 735.934C537.843 736.668 537.837 737.342 538.011 737.957C538.185 738.549 538.513 739.071 538.998 739.523C539.774 740.247 540.622 740.528 541.543 740.367C542.463 740.206 543.319 739.701 544.111 738.853ZM582.18 730.832C581.106 731.984 579.992 732.996 578.838 733.868C577.697 734.752 576.607 735.447 575.57 735.952L570.477 727.125C571.537 726.572 572.425 725.996 573.143 725.396C573.872 724.785 574.372 724.152 574.642 723.497C574.924 722.831 574.912 722.151 574.606 721.458L574.301 720.766L535.985 703.39L545.75 692.918L569.298 706.448L569.569 706.157L554.498 683.537L564.331 672.993L585.088 711.384C586.153 713.328 586.845 715.356 587.165 717.467C587.509 719.577 587.309 721.748 586.566 723.978C585.823 726.208 584.361 728.493 582.18 730.832ZM606.224 685.074C603.398 688.104 600.38 690.138 597.168 691.177C593.944 692.204 590.717 692.287 587.486 691.427C584.243 690.555 581.191 688.786 578.331 686.119C575.47 683.451 573.498 680.536 572.415 677.373C571.319 674.198 571.177 670.973 571.989 667.697C572.789 664.409 574.601 661.25 577.427 658.22C579.981 655.481 582.687 653.575 585.546 652.502C588.404 651.406 591.25 651.148 594.084 651.729C596.907 652.299 599.535 653.708 601.971 655.956L593.291 665.264C591.7 664.03 590.189 663.415 588.759 663.418C587.328 663.397 586.092 663.945 585.052 665.06C584.239 665.932 583.781 666.933 583.68 668.062C583.567 669.18 583.849 670.396 584.528 671.709C585.195 673.01 586.292 674.373 587.819 675.797C589.347 677.221 590.789 678.226 592.146 678.812C593.491 679.386 594.723 679.584 595.842 679.404C596.95 679.213 597.91 678.681 598.724 677.808C599.413 677.069 599.854 676.256 600.046 675.37C600.225 674.473 600.146 673.538 599.807 672.565C599.467 671.568 598.847 670.581 597.945 669.604L606.625 660.296C609.051 662.627 610.671 665.191 611.484 667.988C612.285 670.775 612.25 673.631 611.379 676.557C610.519 679.472 608.801 682.311 606.224 685.074ZM634.221 655.051C631.395 658.081 628.377 660.115 625.165 661.154C621.941 662.181 618.714 662.264 615.483 661.404C612.239 660.532 609.188 658.763 606.327 656.096C603.467 653.428 601.495 650.513 600.411 647.35C599.316 644.175 599.174 640.95 599.986 637.674C600.785 634.386 602.598 631.227 605.424 628.197C608.249 625.168 611.274 623.139 614.497 622.112C617.709 621.073 620.937 620.99 624.18 621.862C627.411 622.722 630.456 624.486 633.317 627.153C636.177 629.82 638.155 632.741 639.251 635.916C640.335 639.079 640.476 642.304 639.677 645.592C638.865 648.868 637.046 652.021 634.221 655.051ZM626.871 648.062C627.662 647.213 628.061 646.214 628.068 645.065C628.075 643.916 627.709 642.68 626.971 641.357C626.233 640.034 625.137 638.695 623.682 637.339C622.216 635.971 620.803 634.971 619.445 634.339C618.074 633.695 616.815 633.416 615.669 633.503C614.523 633.59 613.554 634.058 612.763 634.906C611.927 635.803 611.494 636.838 611.465 638.012C611.435 639.185 611.79 640.433 612.528 641.756C613.254 643.067 614.35 644.407 615.816 645.774C617.271 647.131 618.683 648.131 620.054 648.775C621.425 649.418 622.695 649.685 623.863 649.574C625.032 649.462 626.035 648.958 626.871 648.062Z" fill="white"/>
</g>
<g clip-path="url(#clip2_407_499)">
<rect y="1158.09" width="1011" height="638" rx="38" transform="rotate(-77 0 1158.09)" fill="white"/>
<g clip-path="url(#clip3_407_499)">
<path d="M37.0261 1166.64C16.5771 1161.92 3.82713 1141.51 8.54814 1121.06L218.877 210.026C223.598 189.577 244.003 176.827 264.452 181.548L812.048 307.971C832.496 312.692 845.246 333.096 840.525 353.545L630.196 1264.58C625.475 1285.03 605.071 1297.78 584.622 1293.06L37.0261 1166.64Z" fill="url(#paint1_linear_407_499)"/>
<path d="M1024.7 1272.3C1020.96 1301.32 987.209 1315.39 963.958 1297.64L-92.7357 490.976C-115.987 473.225 -111.305 436.961 -84.307 425.699L1142.63 -86.0902C1169.63 -97.3517 1198.7 -75.1642 1194.95 -46.1526L1024.7 1272.3Z" fill="url(#paint2_linear_407_499)"/>
<path d="M637.507 545.252C646.857 517.534 622.696 490.088 594.017 495.849L-420.544 699.64C-449.223 705.401 -460.912 740.048 -441.583 762.005L242.186 1538.74C261.515 1560.7 297.364 1553.5 306.715 1525.78L637.507 545.252Z" fill="url(#paint3_linear_407_499)"/>
</g>
<circle cx="426.971" cy="1160.19" r="14" transform="rotate(-77 426.971 1160.19)" fill="white"/>
<circle cx="435.519" cy="1123.16" r="14" transform="rotate(-77 435.519 1123.16)" fill="white"/>
<circle cx="444.067" cy="1086.14" r="14" transform="rotate(-77 444.067 1086.14)" fill="white"/>
<circle cx="452.615" cy="1049.11" r="14" transform="rotate(-77 452.615 1049.11)" fill="white"/>
<circle cx="469.711" cy="975.059" r="14" transform="rotate(-77 469.711 975.059)" fill="white"/>
<circle cx="478.259" cy="938.033" r="14" transform="rotate(-77 478.259 938.033)" fill="white"/>
<circle cx="486.807" cy="901.007" r="14" transform="rotate(-77 486.807 901.007)" fill="white"/>
<circle cx="495.356" cy="863.981" r="14" transform="rotate(-77 495.356 863.981)" fill="white"/>
<circle cx="512.452" cy="789.929" r="14" transform="rotate(-77 512.452 789.929)" fill="white"/>
<circle cx="521" cy="752.903" r="14" transform="rotate(-77 521 752.903)" fill="white"/>
<circle cx="529.548" cy="715.877" r="14" transform="rotate(-77 529.548 715.877)" fill="white"/>
<circle cx="538.096" cy="678.851" r="14" transform="rotate(-77 538.096 678.851)" fill="white"/>
<path d="M551.628 614.902C546.01 613.605 541.842 611.651 539.127 609.04C536.386 606.388 535.552 602.741 536.624 598.096C537.697 593.452 540.042 590.555 543.66 589.406C547.252 588.217 551.858 588.271 557.477 589.568C563.161 590.881 567.389 592.866 570.162 595.525C572.91 598.143 573.748 601.775 572.676 606.419C571.604 611.064 569.255 613.977 565.63 615.158C561.979 616.3 557.312 616.214 551.628 614.902ZM556.217 595.025C553.587 594.418 551.321 594.083 549.419 594.02C547.525 593.925 545.89 594.266 544.513 595.043C543.104 595.812 542.163 597.22 541.691 599.266C541.219 601.312 541.447 602.99 542.376 604.299C543.273 605.601 544.59 606.64 546.326 607.417C548.07 608.162 550.257 608.838 552.888 609.446C555.616 610.075 557.944 610.442 559.87 610.544C561.796 610.647 563.448 610.31 564.824 609.533C566.209 608.724 567.137 607.296 567.609 605.25C568.082 603.203 567.87 601.529 566.973 600.228C566.083 598.893 564.751 597.85 562.974 597.098C561.198 596.346 558.946 595.655 556.217 595.025ZM559.959 578.82C554.34 577.523 550.173 575.569 547.457 572.957C544.716 570.306 543.882 566.659 544.955 562.014C546.027 557.37 548.372 554.473 551.99 553.324C555.583 552.135 560.188 552.189 565.807 553.486C571.491 554.799 575.72 556.784 578.493 559.443C581.241 562.061 582.079 565.693 581.006 570.337C579.934 574.982 577.585 577.895 573.96 579.076C570.31 580.218 565.642 580.132 559.959 578.82ZM564.548 558.943C561.917 558.335 559.651 558 557.749 557.938C555.856 557.843 554.22 558.184 552.844 558.96C551.434 559.73 550.494 561.138 550.021 563.184C549.549 565.23 549.777 566.908 550.707 568.217C551.603 569.519 552.92 570.558 554.656 571.335C556.4 572.08 558.588 572.756 561.218 573.363C563.947 573.993 566.274 574.36 568.2 574.462C570.126 574.565 571.778 574.228 573.155 573.451C574.539 572.641 575.467 571.214 575.94 569.167C576.412 567.121 576.2 565.447 575.303 564.146C574.414 562.811 573.081 561.768 571.304 561.016C569.528 560.264 567.276 559.573 564.548 558.943ZM578.947 545.917L574.757 544.95L555.054 523.159L556.606 516.436L579.455 521.711L580.501 517.18L585.324 518.293L584.278 522.824L591.683 524.534L590.424 529.99L583.018 528.281L578.947 545.917ZM561.054 522.953L575.597 538.421L578.252 526.924L561.054 522.953ZM588.074 505.717C586.098 501.976 584.456 499.014 583.147 496.83C581.813 494.607 580.342 492.676 578.736 491.04C577.13 489.403 575.385 488.367 573.501 487.933C571.552 487.483 569.917 487.601 568.595 488.288C567.281 488.943 566.395 490.26 565.938 492.242C565.495 494.158 565.768 495.794 566.754 497.151C567.716 498.468 569.213 499.395 571.244 499.932L570.006 505.291C566.326 504.339 563.756 502.582 562.294 500.021C560.808 497.42 560.443 494.48 561.201 491.199C562.018 487.659 563.63 485.123 566.036 483.592C568.45 482.028 571.28 481.621 574.528 482.371C576.867 482.911 578.985 484.033 580.884 485.737C582.758 487.401 584.364 489.26 585.703 491.314C587.017 493.328 588.502 495.86 590.158 498.911L591.601 501.553L595.166 486.109L599.795 487.178L594.328 510.855L590.285 509.922L588.074 505.717Z" fill="white"/>
<path d="M523.102 1178.11L542.629 1182.62C545.045 1183.18 546.784 1184.36 547.845 1186.17C548.912 1187.94 549.17 1190.03 548.618 1192.42C548.066 1194.81 546.918 1196.58 545.173 1197.74C543.434 1198.87 541.356 1199.16 538.939 1198.6L539.974 1194.12C541.175 1194.37 542.193 1194.29 543.026 1193.88C543.866 1193.44 544.418 1192.65 544.682 1191.51C544.945 1190.37 544.796 1189.42 544.232 1188.66C543.643 1187.89 542.763 1187.37 541.594 1187.1L522.067 1182.6L523.102 1178.11ZM541.041 1174.56C538.885 1174.06 537.077 1173.18 535.618 1171.91C534.165 1170.62 533.161 1169.1 532.605 1167.36C532.03 1165.58 531.958 1163.76 532.39 1161.89C532.78 1160.2 533.457 1158.81 534.42 1157.72C535.364 1156.6 536.416 1155.77 537.577 1155.25L534.459 1154.53L535.494 1150.04L556.969 1155L555.935 1159.48L552.739 1158.75C553.578 1159.73 554.186 1160.95 554.561 1162.41C554.937 1163.86 554.933 1165.42 554.549 1167.09C554.123 1168.93 553.265 1170.51 551.976 1171.83C550.661 1173.14 549.054 1174.06 547.155 1174.58C545.236 1175.06 543.198 1175.06 541.041 1174.56ZM545.178 1157C543.696 1156.66 542.338 1156.67 541.103 1157.04C539.874 1157.39 538.859 1157.99 538.06 1158.85C537.26 1159.7 536.728 1160.7 536.465 1161.84C536.201 1162.99 536.24 1164.12 536.584 1165.24C536.902 1166.35 537.534 1167.35 538.482 1168.22C539.409 1169.07 540.613 1169.66 542.094 1170C543.575 1170.34 544.943 1170.34 546.199 1170C547.46 1169.64 548.503 1169.03 549.329 1168.18C550.134 1167.3 550.666 1166.3 550.924 1165.18C551.188 1164.04 551.148 1162.91 550.805 1161.79C550.461 1160.67 549.812 1159.69 548.859 1158.84C547.886 1157.95 546.659 1157.34 545.178 1157ZM539.352 1131.73C539.742 1130.04 540.441 1128.62 541.448 1127.45C542.462 1126.27 543.744 1125.45 545.295 1125.02C546.846 1124.58 548.596 1124.59 550.545 1125.04L563.212 1127.96L562.195 1132.37L550.191 1129.6C548.268 1129.15 546.689 1129.29 545.454 1130.02C544.192 1130.74 543.37 1131.94 542.986 1133.6C542.602 1135.26 542.816 1136.71 543.627 1137.93C544.418 1139.13 545.775 1139.95 547.698 1140.39L559.702 1143.16L558.677 1147.61L537.201 1142.65L538.227 1138.21L540.683 1138.77C539.967 1137.84 539.492 1136.76 539.256 1135.53C539.026 1134.27 539.058 1133.01 539.352 1131.73ZM558.16 1098.45C558.966 1098.64 559.681 1098.86 560.307 1099.11L556.519 1115.52C558.264 1115.79 559.788 1115.47 561.091 1114.57C562.394 1113.66 563.238 1112.38 563.622 1110.72C564.174 1108.33 563.563 1106.41 561.79 1104.96L562.897 1100.16C564.722 1101.27 566.073 1102.83 566.95 1104.84C567.807 1106.81 567.945 1109.06 567.363 1111.58C566.889 1113.63 566.009 1115.37 564.721 1116.8C563.414 1118.2 561.821 1119.17 559.942 1119.72C558.043 1120.24 555.99 1120.24 553.781 1119.73C551.572 1119.22 549.739 1118.34 548.28 1117.07C546.801 1115.77 545.793 1114.21 545.255 1112.39C544.724 1110.54 544.701 1108.57 545.187 1106.46C545.655 1104.43 546.513 1102.73 547.762 1101.35C549.012 1099.97 550.544 1099.02 552.359 1098.51C554.148 1097.99 556.082 1097.97 558.16 1098.45ZM555.686 1102.77C554.043 1102.42 552.596 1102.7 551.345 1103.61C550.094 1104.53 549.273 1105.83 548.883 1107.52C548.529 1109.05 548.72 1110.48 549.455 1111.8C550.165 1113.11 551.327 1114.06 552.942 1114.66L555.686 1102.77ZM554.546 1041.91L579.78 1056.2L578.62 1061.22L556.805 1062.18L575.911 1072.96L574.798 1077.95L545.899 1079.37L546.988 1074.65L570.344 1074.13L549.687 1062.96L550.839 1057.97L574.087 1057.39L553.449 1046.67L554.546 1041.91ZM571.663 1041.92C569.506 1041.43 567.699 1040.54 566.24 1039.28C564.787 1037.98 563.782 1036.46 563.227 1034.72C562.651 1032.95 562.58 1031.12 563.012 1029.25C563.401 1027.56 564.078 1026.17 565.042 1025.08C565.985 1023.96 567.038 1023.14 568.199 1022.61L565.081 1021.89L566.116 1017.41L587.591 1022.37L586.556 1026.85L583.36 1026.11C584.199 1027.1 584.807 1028.32 585.183 1029.77C585.558 1031.23 585.554 1032.79 585.17 1034.45C584.744 1036.3 583.887 1037.88 582.597 1039.19C581.282 1040.5 579.675 1041.42 577.776 1041.94C575.857 1042.43 573.82 1042.42 571.663 1041.92ZM575.799 1024.36C574.318 1024.02 572.96 1024.04 571.725 1024.41C570.495 1024.75 569.481 1025.35 568.681 1026.21C567.882 1027.07 567.35 1028.07 567.086 1029.21C566.822 1030.35 566.862 1031.48 567.206 1032.6C567.523 1033.72 568.156 1034.71 569.103 1035.59C570.03 1036.43 571.235 1037.02 572.716 1037.36C574.197 1037.71 575.565 1037.71 576.82 1037.37C578.081 1037 579.125 1036.39 579.95 1035.54C580.756 1034.66 581.288 1033.66 581.546 1032.55C581.81 1031.4 581.77 1030.27 581.426 1029.15C581.082 1028.03 580.434 1027.05 579.481 1026.2C578.507 1025.32 577.28 1024.71 575.799 1024.36ZM571.967 1006.29C571.025 1005.39 570.379 1004.34 570.027 1003.13C569.656 1001.9 569.641 1000.54 569.983 999.058L574.582 1000.12L574.321 1001.25C573.919 1002.99 574.055 1004.42 574.728 1005.53C575.408 1006.62 576.839 1007.41 579.021 1007.92L590.324 1010.53L589.298 1014.97L567.823 1010.01L568.849 1005.57L571.967 1006.29ZM575.78 989.772C574.839 988.871 574.192 987.818 573.84 986.615C573.469 985.38 573.454 984.022 573.796 982.541L578.395 983.602L578.134 984.733C577.732 986.474 577.868 987.901 578.541 989.014C579.221 990.101 580.652 990.897 582.834 991.401L594.137 994.01L593.111 998.454L571.636 993.496L572.662 989.052L575.78 989.772ZM590.205 959.654C591.01 959.84 591.726 960.06 592.351 960.314L588.563 976.722C590.308 976.988 591.832 976.669 593.136 975.766C594.439 974.863 595.282 973.58 595.666 971.917C596.218 969.526 595.608 967.606 593.835 966.157L594.942 961.363C596.767 962.469 598.118 964.026 598.995 966.035C599.852 968.011 599.99 970.26 599.408 972.78C598.934 974.833 598.053 976.573 596.766 978C595.459 979.395 593.866 980.368 591.987 980.92C590.088 981.439 588.034 981.444 585.826 980.934C583.617 980.424 581.783 979.536 580.324 978.268C578.845 976.969 577.837 975.409 577.3 973.588C576.768 971.741 576.745 969.765 577.231 967.661C577.699 965.634 578.558 963.93 579.807 962.549C581.056 961.168 582.589 960.222 584.404 959.71C586.192 959.193 588.126 959.174 590.205 959.654ZM587.731 963.968C586.088 963.616 584.641 963.898 583.39 964.813C582.138 965.728 581.318 967.03 580.928 968.719C580.574 970.252 580.765 971.678 581.5 972.998C582.21 974.311 583.372 975.263 584.987 975.855L587.731 963.968ZM583.514 940.449C583.903 938.76 584.602 937.334 585.61 936.171C586.623 934.981 587.905 934.169 589.456 933.734C591.008 933.298 592.757 933.305 594.706 933.755L607.373 936.679L606.356 941.084L594.352 938.312C592.429 937.868 590.85 938.01 589.615 938.737C588.354 939.459 587.531 940.651 587.147 942.314C586.763 943.977 586.977 945.422 587.788 946.649C588.58 947.845 589.937 948.664 591.86 949.108L603.864 951.88L602.838 956.323L581.363 951.365L582.389 946.922L584.844 947.489C584.129 946.557 583.653 945.476 583.417 944.244C583.188 942.987 583.22 941.722 583.514 940.449Z" fill="white"/>
<path d="M695.032 490.482C690.537 489.444 687.203 487.881 685.031 485.792C682.839 483.671 682.171 480.753 683.029 477.037C683.887 473.321 685.763 471.004 688.657 470.085C691.532 469.134 695.216 469.177 699.711 470.215C704.258 471.265 707.641 472.853 709.86 474.98C712.058 477.075 712.728 479.98 711.87 483.696C711.013 487.411 709.134 489.742 706.233 490.687C703.313 491.6 699.579 491.532 695.032 490.482ZM698.704 474.58C696.599 474.094 694.786 473.826 693.265 473.776C691.75 473.7 690.442 473.973 689.34 474.594C688.213 475.21 687.46 476.336 687.082 477.973C686.705 479.61 686.887 480.952 687.631 481.999C688.348 483.041 689.401 483.872 690.791 484.494C692.186 485.09 693.935 485.631 696.04 486.117C698.223 486.621 700.085 486.914 701.626 486.996C703.167 487.078 704.488 486.808 705.589 486.186C706.697 485.539 707.439 484.397 707.817 482.76C708.195 481.123 708.025 479.784 707.308 478.742C706.596 477.675 705.53 476.84 704.109 476.239C702.688 475.637 700.886 475.084 698.704 474.58ZM701.991 459.098C700.016 461.488 697.573 462.347 694.663 461.675C693.26 461.351 692.055 460.704 691.047 459.732C690.04 458.761 689.361 457.496 689.009 455.936C688.631 454.371 688.676 452.576 689.144 450.549C689.606 448.548 690.35 446.927 691.375 445.686C692.381 444.413 693.549 443.561 694.881 443.129C696.212 442.697 697.579 442.644 698.982 442.967C700.437 443.303 701.636 443.977 702.58 444.989C703.503 445.968 704.122 447.137 704.438 448.497C705.326 447.141 706.492 446.179 707.937 445.61C709.356 445.034 710.897 444.938 712.56 445.322C714.249 445.712 715.644 446.486 716.745 447.643C717.847 448.801 718.571 450.227 718.919 451.922C719.266 453.617 719.215 455.439 718.765 457.387C718.315 459.336 717.563 460.996 716.507 462.367C715.458 463.712 714.184 464.663 712.687 465.221C711.19 465.778 709.597 465.862 707.908 465.472C706.219 465.082 704.863 464.318 703.84 463.178C702.817 462.039 702.2 460.679 701.991 459.098ZM698.547 447.342C697.092 447.006 695.87 447.203 694.88 447.932C693.891 448.661 693.213 449.819 692.847 451.404C692.487 452.963 692.592 454.287 693.161 455.376C693.731 456.466 694.756 457.181 696.237 457.523C697.536 457.823 698.71 457.601 699.757 456.858C700.785 456.082 701.469 454.954 701.811 453.473C702.153 451.992 702.019 450.675 701.41 449.522C700.8 448.368 699.846 447.642 698.547 447.342ZM705.163 454.247C704.767 455.962 704.872 457.464 705.477 458.753C706.063 460.011 707.148 460.822 708.733 461.188C710.214 461.53 711.542 461.289 712.718 460.466C713.867 459.636 714.649 458.325 715.063 456.533C715.471 454.766 715.324 453.268 714.622 452.038C713.927 450.783 712.852 449.987 711.397 449.651C709.838 449.292 708.506 449.545 707.403 450.413C706.306 451.254 705.559 452.532 705.163 454.247ZM688.503 417.407L729.669 438.077L728.661 442.442L687.486 421.812L688.503 417.407ZM721.339 415.477C719.758 412.485 718.444 410.116 717.397 408.369C716.33 406.59 715.154 405.045 713.869 403.736C712.584 402.427 711.188 401.598 709.68 401.25C708.122 400.89 706.813 400.985 705.756 401.535C704.705 402.058 703.996 403.113 703.63 404.698C703.276 406.231 703.494 407.54 704.283 408.625C705.053 409.679 706.25 410.42 707.875 410.85L706.885 415.137C703.941 414.376 701.884 412.97 700.715 410.921C699.526 408.841 699.235 406.488 699.84 403.864C700.494 401.032 701.784 399.003 703.709 397.778C705.639 396.527 707.904 396.201 710.502 396.801C712.373 397.233 714.068 398.131 715.587 399.494C717.086 400.825 718.371 402.312 719.442 403.955C720.493 405.567 721.681 407.592 723.006 410.033L724.16 412.147L727.013 399.792L730.715 400.647L726.342 419.588L723.107 418.842L721.339 415.477ZM725.927 387.958C727.286 387.998 728.402 387.668 729.276 386.966C730.149 386.265 730.754 385.186 731.09 383.731C731.516 381.887 731.1 380.368 729.843 379.174C728.586 377.981 726.204 376.979 722.696 376.169C723.436 376.997 723.92 378.039 724.15 379.297C724.36 380.522 724.312 381.797 724.006 383.122C723.616 384.811 722.924 386.266 721.93 387.487C720.911 388.702 719.633 389.557 718.096 390.05C716.539 390.512 714.786 390.518 712.837 390.068C709.979 389.408 707.897 388.052 706.592 385.999C705.267 383.914 704.944 381.403 705.622 378.467C706.437 374.934 708.198 372.699 710.905 371.764C713.591 370.797 717.364 370.874 722.223 371.996C725.575 372.77 728.25 373.688 730.248 374.752C732.253 375.789 733.642 377.123 734.415 378.752C735.189 380.381 735.294 382.417 734.73 384.859C734.088 387.639 732.865 389.615 731.062 390.786C729.259 391.957 727.233 392.379 724.982 392.051L725.927 387.958ZM720.444 381.479C720.804 379.92 720.605 378.588 719.848 377.482C719.07 376.345 717.876 375.59 716.265 375.218C714.472 374.804 712.971 374.964 711.762 375.698C710.533 376.399 709.729 377.568 709.351 379.205C708.973 380.842 709.193 382.261 710.01 383.463C710.808 384.632 712.038 385.409 713.701 385.792C715.286 386.158 716.703 386.007 717.952 385.337C719.181 384.636 720.012 383.35 720.444 381.479Z" fill="white"/>
<g clip-path="url(#clip4_407_499)">
<g clip-path="url(#clip5_407_499)">
<path d="M341.726 407.557L338.354 422.159L283.87 399.96L287.241 385.359L341.726 407.557Z" fill="white"/>
<path d="M298.737 341.877C296.927 344.493 294.608 348.769 293.304 354.417C289.975 368.838 295.336 380.771 306.339 383.377C314.44 385.373 320.661 379.025 324.647 374.124C328.721 369.114 330.972 367.611 333.44 368.181C337.218 369.114 337.925 374.025 336.955 378.229C335.609 384.059 333.986 386.974 330.781 391.234L329.433 392.948L341.665 397.925C344.019 394.861 346.864 388.872 348.437 382.335C351.974 367.013 346.69 355.287 334.977 352.458C328.548 350.912 322.711 353.675 316.735 361.157C312.966 365.666 310.498 368.391 307.849 367.779C305.454 367.163 303.584 364.008 304.915 358.243C305.89 353.468 307.839 350.244 309.593 347.866L310.499 346.684L298.737 341.877Z" fill="white"/>
<path d="M338.378 330.587C335.405 328.633 323.89 321.101 323.89 321.101C323.997 321.19 320.856 319.136 318.915 317.929L324.027 318.034C324.027 318.034 338.212 318.397 341.18 318.449C340.653 320.731 339.044 327.702 338.378 330.587ZM305.995 304.125L303.388 315.42C302.584 318.903 302.995 321.785 306.321 324.136L353.21 357.807L356.748 342.485C356.748 342.485 350.345 338.35 348.966 337.461C349.354 335.78 352.795 320.875 353.294 318.713C355.378 318.752 362.186 318.93 362.186 318.93L365.307 305.41L305.995 304.125Z" fill="white"/>
<path d="M278.946 421.29L314.235 444.5L306.048 444.256C296.406 444.814 284.68 450.841 277.665 458.967L330.18 457.295L333.744 441.853L282.51 405.849L278.946 421.29Z" fill="white"/>
<path d="M272.578 448.869L267.155 472.363L268.243 472.867C277.17 455.625 291.292 446.101 306.05 444.256L278.861 443.358C275.053 443.365 273.433 445.713 272.578 448.869Z" fill="white"/>
</g>
</g>
<path d="M163.049 1109.77L113.445 1098.31L118.388 1076.9C119.238 1073.22 120.708 1070.17 122.799 1067.74C124.889 1065.32 127.428 1063.64 130.414 1062.71C133.4 1061.79 136.653 1061.73 140.173 1062.54C143.726 1063.36 146.619 1064.87 148.854 1067.05C151.092 1069.21 152.585 1071.88 153.334 1075.05C154.086 1078.2 154.026 1081.66 153.154 1085.44L150.201 1098.23L139.738 1095.81L142.064 1085.74C142.43 1084.15 142.466 1082.74 142.175 1081.5C141.87 1080.24 141.271 1079.19 140.375 1078.36C139.483 1077.5 138.335 1076.92 136.93 1076.59C135.509 1076.26 134.227 1076.29 133.085 1076.67C131.929 1077.04 130.955 1077.72 130.161 1078.73C129.355 1079.72 128.769 1081 128.404 1082.58L127.308 1087.33L166.158 1096.3L163.049 1109.77ZM175.703 1057.61C175.155 1059.98 174.282 1061.99 173.086 1063.64C171.877 1065.26 170.354 1066.41 168.517 1067.07C166.68 1067.74 164.526 1067.79 162.056 1067.22C160.021 1066.75 158.365 1066 157.089 1064.97C155.796 1063.94 154.833 1062.7 154.199 1061.24C153.566 1059.79 153.197 1058.18 153.093 1056.42C152.992 1054.65 153.091 1052.78 153.39 1050.83C153.709 1048.71 153.901 1046.99 153.966 1045.68C154.018 1044.35 153.9 1043.35 153.61 1042.69C153.305 1042.02 152.797 1041.61 152.086 1041.44L151.989 1041.42C151.021 1041.2 150.192 1041.4 149.504 1042.02C148.816 1042.64 148.337 1043.54 148.069 1044.7C147.775 1045.97 147.817 1047.08 148.195 1048.02C148.562 1048.94 149.299 1049.61 150.409 1050.04L147.568 1062.34C145.345 1061.66 143.428 1060.46 141.817 1058.74C140.193 1057.01 139.094 1054.77 138.518 1052.04C137.925 1049.3 138.056 1046.08 138.91 1042.38C139.525 1039.72 140.392 1037.4 141.51 1035.43C142.612 1033.46 143.891 1031.85 145.348 1030.63C146.789 1029.39 148.342 1028.56 150.006 1028.13C151.658 1027.68 153.348 1027.65 155.076 1028.05L180.556 1033.93L177.671 1046.43L172.439 1045.22L172.372 1045.51C173.589 1046.58 174.503 1047.74 175.113 1049C175.726 1050.25 176.07 1051.6 176.145 1053.04C176.223 1054.47 176.075 1056 175.703 1057.61ZM168.28 1051.3C168.515 1050.29 168.525 1049.29 168.31 1048.3C168.099 1047.3 167.663 1046.42 167.003 1045.68C166.342 1044.93 165.446 1044.42 164.316 1044.16L161.216 1043.45C161.279 1043.84 161.329 1044.25 161.365 1044.68C161.404 1045.1 161.429 1045.55 161.437 1046.02C161.45 1046.49 161.446 1046.98 161.428 1047.5C161.413 1048.01 161.384 1048.54 161.342 1049.09C161.265 1050.16 161.336 1051.07 161.554 1051.82C161.76 1052.55 162.092 1053.13 162.551 1053.58C162.997 1054 163.542 1054.29 164.188 1054.44C165.222 1054.68 166.097 1054.5 166.814 1053.9C167.53 1053.3 168.019 1052.43 168.28 1051.3ZM197.239 1025.32C196.885 1026.86 196.426 1028.29 195.863 1029.62C195.317 1030.96 194.72 1032.11 194.074 1033.06L185.251 1027.96C185.892 1026.96 186.373 1026.01 186.695 1025.13C187.021 1024.24 187.137 1023.44 187.044 1022.74C186.954 1022.02 186.604 1021.44 185.993 1020.99L185.382 1020.55L143.512 1024.66L146.733 1010.7L173.891 1010.65L173.98 1010.26L149.618 998.206L152.862 984.158L190.034 1007.03C191.928 1008.18 193.541 1009.59 194.874 1011.26C196.226 1012.91 197.139 1014.89 197.61 1017.19C198.082 1019.5 197.958 1022.21 197.239 1025.32ZM195.183 973.674C194.251 977.711 192.654 980.982 190.392 983.487C188.113 985.988 185.36 987.674 182.132 988.545C178.887 989.411 175.359 989.405 171.549 988.525C167.738 987.645 164.573 986.107 162.052 983.909C159.516 981.708 157.781 978.985 156.846 975.742C155.894 972.495 155.885 968.853 156.817 964.816C157.659 961.167 159.05 958.163 160.989 955.805C162.916 953.426 165.252 951.78 167.997 950.866C170.726 949.948 173.707 949.854 176.941 950.584L174.078 962.985C172.083 962.711 170.467 962.933 169.229 963.651C167.98 964.349 167.184 965.441 166.841 966.927C166.572 968.089 166.676 969.185 167.153 970.213C167.614 971.238 168.467 972.149 169.711 972.947C170.94 973.741 172.571 974.372 174.606 974.842C176.64 975.312 178.392 975.461 179.86 975.29C181.312 975.115 182.478 974.67 183.357 973.954C184.22 973.235 184.786 972.294 185.055 971.132C185.282 970.147 185.257 969.222 184.98 968.359C184.687 967.492 184.151 966.722 183.371 966.049C182.578 965.356 181.547 964.811 180.278 964.416L183.141 952.015C186.408 952.82 189.093 954.231 191.195 956.247C193.282 958.26 194.68 960.751 195.389 963.721C196.101 966.675 196.033 969.992 195.183 973.674ZM204.417 933.675C203.485 937.712 201.888 940.983 199.626 943.488C197.348 945.989 194.594 947.675 191.366 948.546C188.122 949.412 184.594 949.406 180.783 948.526C176.972 947.646 173.807 946.108 171.287 943.91C168.751 941.709 167.015 938.986 166.08 935.743C165.129 932.496 165.119 928.854 166.051 924.817C166.983 920.781 168.588 917.512 170.867 915.01C173.129 912.505 175.882 910.819 179.127 909.952C182.355 909.082 185.875 909.087 189.685 909.966C193.496 910.846 196.67 912.387 199.206 914.588C201.726 916.786 203.461 919.508 204.413 922.755C205.348 925.998 205.349 929.638 204.417 933.675ZM194.557 931.297C194.818 930.166 194.664 929.102 194.096 928.103C193.527 927.104 192.592 926.217 191.292 925.44C189.991 924.664 188.372 924.052 186.435 923.605C184.481 923.154 182.757 922.994 181.264 923.125C179.755 923.253 178.526 923.641 177.577 924.289C176.628 924.938 176.023 925.827 175.762 926.957C175.486 928.152 175.629 929.265 176.19 930.296C176.752 931.327 177.683 932.231 178.983 933.007C180.267 933.78 181.886 934.392 183.84 934.843C185.778 935.29 187.501 935.45 189.01 935.322C190.52 935.195 191.752 934.79 192.709 934.11C193.665 933.429 194.282 932.491 194.557 931.297Z" fill="white"/>
</g>
<defs>
<filter id="filter0_f_407_499" x="566.534" y="-60.1353" width="893.002" height="893.002" filterUnits="userSpaceOnUse" color-interpolation-filters="sRGB">
<feFlood flood-opacity="0" result="BackgroundImageFix"/>
<feBlend mode="normal" in="SourceGraphic" in2="BackgroundImageFix" result="shape"/>
<feGaussianBlur stdDeviation="97" result="effect1_foregroundBlur_407_499"/>
</filter>
<filter id="filter1_f_407_499" x="58.1308" y="212.332" width="893.002" height="893.002" filterUnits="userSpaceOnUse" color-interpolation-filters="sRGB">
<feFlood flood-opacity="0" result="BackgroundImageFix"/>
<feBlend mode="normal" in="SourceGraphic" in2="BackgroundImageFix" result="shape"/>
<feGaussianBlur stdDeviation="97" result="effect1_foregroundBlur_407_499"/>
</filter>
<filter id="filter2_f_407_499" x="989.718" y="-57.9324" width="893.002" height="893.002" filterUnits="userSpaceOnUse" color-interpolation-filters="sRGB">
<feFlood flood-opacity="0" result="BackgroundImageFix"/>
<feBlend mode="normal" in="SourceGraphic" in2="BackgroundImageFix" result="shape"/>
<feGaussianBlur stdDeviation="97" result="effect1_foregroundBlur_407_499"/>
</filter>
<filter id="filter3_f_407_499" x="632.907" y="476.754" width="938.002" height="938.002" filterUnits="userSpaceOnUse" color-interpolation-filters="sRGB">
<feFlood flood-opacity="0" result="BackgroundImageFix"/>
<feBlend mode="normal" in="SourceGraphic" in2="BackgroundImageFix" result="shape"/>
<feGaussianBlur stdDeviation="97" result="effect1_foregroundBlur_407_499"/>
</filter>
<linearGradient id="paint0_linear_407_499" x1="820.456" y1="1233.65" x2="1052.06" y2="-25.7229" gradientUnits="userSpaceOnUse">
<stop stop-color="#3EFCCE"/>
<stop offset="1" stop-color="#3FE4FB"/>
</linearGradient>
<linearGradient id="paint1_linear_407_499" x1="589.599" y1="1373.75" x2="235.524" y2="137.923" gradientUnits="userSpaceOnUse">
<stop stop-color="#E3727D"/>
<stop offset="1" stop-color="#8E54E9"/>
</linearGradient>
<linearGradient id="paint2_linear_407_499" x1="1653.64" y1="1767.91" x2="1096.7" y2="142.637" gradientUnits="userSpaceOnUse">
<stop stop-color="#850707"/>
<stop offset="1" stop-color="#E36262" stop-opacity="0"/>
</linearGradient>
<linearGradient id="paint3_linear_407_499" x1="1266.51" y1="397.158" x2="298.041" y2="1368.5" gradientUnits="userSpaceOnUse">
<stop stop-color="#850707"/>
<stop offset="1" stop-color="#8E54E9" stop-opacity="0"/>
</linearGradient>
<clipPath id="clip0_407_499">
<rect x="337.67" y="740.37" width="1011" height="638" rx="38" transform="rotate(-47 337.67 740.37)" fill="white"/>
</clipPath>
<clipPath id="clip1_407_499">
<path d="M365.461 766.286C350.113 751.973 349.273 727.927 363.586 712.579L1001.25 28.7629C1015.57 13.4141 1039.61 12.5744 1054.96 26.8874L1465.98 410.17C1481.33 424.483 1482.17 448.529 1467.86 463.878L830.19 1147.69C815.877 1163.04 791.831 1163.88 776.482 1149.57L365.461 766.286Z" fill="white"/>
</clipPath>
<clipPath id="clip2_407_499">
<rect y="1158.09" width="1011" height="638" rx="38" transform="rotate(-77 0 1158.09)" fill="white"/>
</clipPath>
<clipPath id="clip3_407_499">
<path d="M37.0261 1166.64C16.5771 1161.92 3.82713 1141.51 8.54814 1121.06L218.877 210.026C223.598 189.577 244.003 176.827 264.452 181.548L812.048 307.971C832.496 312.692 845.246 333.096 840.525 353.545L630.196 1264.58C625.475 1285.03 605.071 1297.78 584.622 1293.06L37.0261 1166.64Z" fill="white"/>
</clipPath>
<clipPath id="clip4_407_499">
<rect width="220" height="110" fill="white" transform="translate(237.89 483.307) rotate(-77)"/>
</clipPath>
<clipPath id="clip5_407_499">
<rect width="185" height="60" fill="white" transform="translate(266.073 472.366) rotate(-77)"/>
</clipPath>
</defs>
</svg>
