<svg width="1011" height="638" viewBox="0 0 1011 638" fill="none" xmlns="http://www.w3.org/2000/svg">
<g clip-path="url(#clip0_308_967)">
<rect width="1011" height="638" rx="38" fill="white"/>
<path d="M0 38C0 17.0132 17.0132 0 38 0H973C993.987 0 1011 17.0132 1011 38V600C1011 620.987 993.987 638 973 638H38C17.0132 638 0 620.987 0 600V38Z" fill="black"/>
<g opacity="0.5">
<line y1="3" x2="1011" y2="3" stroke="white" stroke-opacity="0.2" stroke-width="2"/>
<line y1="17" x2="1011" y2="17" stroke="white" stroke-opacity="0.2" stroke-width="2"/>
<line y1="31" x2="1011" y2="31" stroke="white" stroke-opacity="0.2" stroke-width="2"/>
<line y1="45" x2="1011" y2="45" stroke="white" stroke-opacity="0.2" stroke-width="2"/>
<line y1="59" x2="1011" y2="59" stroke="white" stroke-opacity="0.2" stroke-width="2"/>
<line y1="73" x2="1011" y2="73" stroke="white" stroke-opacity="0.2" stroke-width="2"/>
<line y1="87" x2="1011" y2="87" stroke="white" stroke-opacity="0.2" stroke-width="2"/>
<line y1="101" x2="1011" y2="101" stroke="white" stroke-opacity="0.2" stroke-width="2"/>
<line y1="115" x2="1011" y2="115" stroke="white" stroke-opacity="0.2" stroke-width="2"/>
<line y1="129" x2="1011" y2="129" stroke="white" stroke-opacity="0.2" stroke-width="2"/>
<line y1="143" x2="1011" y2="143" stroke="white" stroke-opacity="0.2" stroke-width="2"/>
<line y1="157" x2="1011" y2="157" stroke="white" stroke-opacity="0.2" stroke-width="2"/>
<line y1="171" x2="1011" y2="171" stroke="white" stroke-opacity="0.2" stroke-width="2"/>
<line y1="185" x2="1011" y2="185" stroke="white" stroke-opacity="0.2" stroke-width="2"/>
<line y1="199" x2="1011" y2="199" stroke="white" stroke-opacity="0.2" stroke-width="2"/>
<line y1="213" x2="1011" y2="213" stroke="white" stroke-opacity="0.2" stroke-width="2"/>
<line y1="227" x2="1011" y2="227" stroke="white" stroke-opacity="0.2" stroke-width="2"/>
<line y1="241" x2="1011" y2="241" stroke="white" stroke-opacity="0.2" stroke-width="2"/>
<line y1="255" x2="1011" y2="255" stroke="white" stroke-opacity="0.2" stroke-width="2"/>
<line y1="269" x2="1011" y2="269" stroke="white" stroke-opacity="0.2" stroke-width="2"/>
<line y1="283" x2="1011" y2="283" stroke="white" stroke-opacity="0.2" stroke-width="2"/>
<line y1="297" x2="1011" y2="297" stroke="white" stroke-opacity="0.2" stroke-width="2"/>
<line y1="311" x2="1011" y2="311" stroke="white" stroke-opacity="0.2" stroke-width="2"/>
<line y1="325" x2="1011" y2="325" stroke="white" stroke-opacity="0.2" stroke-width="2"/>
<line y1="339" x2="1011" y2="339" stroke="white" stroke-opacity="0.2" stroke-width="2"/>
<line y1="353" x2="1011" y2="353" stroke="white" stroke-opacity="0.2" stroke-width="2"/>
<line y1="367" x2="1011" y2="367" stroke="white" stroke-opacity="0.2" stroke-width="2"/>
<line y1="381" x2="1011" y2="381" stroke="white" stroke-opacity="0.2" stroke-width="2"/>
<line y1="395" x2="1011" y2="395" stroke="white" stroke-opacity="0.2" stroke-width="2"/>
<line y1="409" x2="1011" y2="409" stroke="white" stroke-opacity="0.2" stroke-width="2"/>
<line y1="423" x2="1011" y2="423" stroke="white" stroke-opacity="0.2" stroke-width="2"/>
<line y1="437" x2="1011" y2="437" stroke="white" stroke-opacity="0.2" stroke-width="2"/>
<line y1="451" x2="1011" y2="451" stroke="white" stroke-opacity="0.2" stroke-width="2"/>
<line y1="465" x2="1011" y2="465" stroke="white" stroke-opacity="0.2" stroke-width="2"/>
<line y1="479" x2="1011" y2="479" stroke="white" stroke-opacity="0.2" stroke-width="2"/>
<line y1="493" x2="1011" y2="493" stroke="white" stroke-opacity="0.2" stroke-width="2"/>
<line y1="507" x2="1011" y2="507" stroke="white" stroke-opacity="0.2" stroke-width="2"/>
<line y1="521" x2="1011" y2="521" stroke="white" stroke-opacity="0.2" stroke-width="2"/>
<line y1="535" x2="1011" y2="535" stroke="white" stroke-opacity="0.2" stroke-width="2"/>
<line y1="549" x2="1011" y2="549" stroke="white" stroke-opacity="0.2" stroke-width="2"/>
<line y1="563" x2="1011" y2="563" stroke="white" stroke-opacity="0.2" stroke-width="2"/>
<line y1="577" x2="1011" y2="577" stroke="white" stroke-opacity="0.2" stroke-width="2"/>
<line y1="591" x2="1011" y2="591" stroke="white" stroke-opacity="0.2" stroke-width="2"/>
<line y1="605" x2="1011" y2="605" stroke="white" stroke-opacity="0.2" stroke-width="2"/>
<line y1="619" x2="1011" y2="619" stroke="white" stroke-opacity="0.2" stroke-width="2"/>
<line y1="633" x2="1011" y2="633" stroke="white" stroke-opacity="0.2" stroke-width="2"/>
</g>
<circle cx="94" cy="416.5" r="14" fill="white"/>
<circle cx="132" cy="416.5" r="14" fill="white"/>
<circle cx="170" cy="416.5" r="14" fill="white"/>
<circle cx="208" cy="416.5" r="14" fill="white"/>
<circle cx="284" cy="416.5" r="14" fill="white"/>
<circle cx="322" cy="416.5" r="14" fill="white"/>
<circle cx="360" cy="416.5" r="14" fill="white"/>
<circle cx="398" cy="416.5" r="14" fill="white"/>
<circle cx="474" cy="416.5" r="14" fill="white"/>
<circle cx="512" cy="416.5" r="14" fill="white"/>
<circle cx="550" cy="416.5" r="14" fill="white"/>
<circle cx="588" cy="416.5" r="14" fill="white"/>
<path d="M653.354 415.3C653.354 409.533 654.32 405.033 656.254 401.8C658.22 398.533 661.587 396.9 666.354 396.9C671.12 396.9 674.47 398.533 676.404 401.8C678.37 405.033 679.354 409.533 679.354 415.3C679.354 421.133 678.37 425.7 676.404 429C674.47 432.267 671.12 433.9 666.354 433.9C661.587 433.9 658.22 432.267 656.254 429C654.32 425.7 653.354 421.133 653.354 415.3ZM673.754 415.3C673.754 412.6 673.57 410.317 673.204 408.45C672.87 406.583 672.17 405.067 671.104 403.9C670.037 402.7 668.454 402.1 666.354 402.1C664.254 402.1 662.67 402.7 661.604 403.9C660.537 405.067 659.82 406.583 659.454 408.45C659.12 410.317 658.954 412.6 658.954 415.3C658.954 418.1 659.12 420.45 659.454 422.35C659.787 424.25 660.487 425.783 661.554 426.95C662.654 428.117 664.254 428.7 666.354 428.7C668.454 428.7 670.037 428.117 671.104 426.95C672.204 425.783 672.92 424.25 673.254 422.35C673.587 420.45 673.754 418.1 673.754 415.3ZM690.385 415.3C690.385 409.533 691.351 405.033 693.285 401.8C695.251 398.533 698.618 396.9 703.385 396.9C708.151 396.9 711.501 398.533 713.435 401.8C715.401 405.033 716.385 409.533 716.385 415.3C716.385 421.133 715.401 425.7 713.435 429C711.501 432.267 708.151 433.9 703.385 433.9C698.618 433.9 695.251 432.267 693.285 429C691.351 425.7 690.385 421.133 690.385 415.3ZM710.785 415.3C710.785 412.6 710.601 410.317 710.235 408.45C709.901 406.583 709.201 405.067 708.135 403.9C707.068 402.7 705.485 402.1 703.385 402.1C701.285 402.1 699.701 402.7 698.635 403.9C697.568 405.067 696.851 406.583 696.485 408.45C696.151 410.317 695.985 412.6 695.985 415.3C695.985 418.1 696.151 420.45 696.485 422.35C696.818 424.25 697.518 425.783 698.585 426.95C699.685 428.117 701.285 428.7 703.385 428.7C705.485 428.7 707.068 428.117 708.135 426.95C709.235 425.783 709.951 424.25 710.285 422.35C710.618 420.45 710.785 418.1 710.785 415.3ZM726.716 426.4V422.1L743.516 398H750.416V421.45H755.066V426.4H750.416V434H744.816V426.4H726.716ZM745.066 403.8L733.266 421.45H745.066V403.8ZM767.939 426.25C771.139 423.483 773.656 421.217 775.489 419.45C777.356 417.65 778.906 415.783 780.139 413.85C781.372 411.917 781.989 409.983 781.989 408.05C781.989 406.05 781.506 404.483 780.539 403.35C779.606 402.217 778.122 401.65 776.089 401.65C774.122 401.65 772.589 402.283 771.489 403.55C770.422 404.783 769.856 406.45 769.789 408.55H764.289C764.389 404.75 765.522 401.85 767.689 399.85C769.889 397.817 772.672 396.8 776.039 396.8C779.672 396.8 782.506 397.8 784.539 399.8C786.606 401.8 787.639 404.467 787.639 407.8C787.639 410.2 787.022 412.517 785.789 414.75C784.589 416.95 783.139 418.933 781.439 420.7C779.772 422.433 777.639 424.45 775.039 426.75L772.789 428.75H788.639V433.5H764.339V429.35L767.939 426.25Z" fill="white"/>
<path d="M98.16 514.2V534.24C98.16 536.72 97.4 538.68 95.88 540.12C94.3867 541.56 92.4133 542.28 89.96 542.28C87.5067 542.28 85.52 541.56 84 540.12C82.5067 538.68 81.76 536.72 81.76 534.24H86.36C86.3867 535.467 86.6933 536.44 87.28 537.16C87.8933 537.88 88.7867 538.24 89.96 538.24C91.1333 538.24 92.0267 537.88 92.64 537.16C93.2533 536.413 93.56 535.44 93.56 534.24V514.2H98.16ZM105.658 530.88C105.658 528.667 106.111 526.707 107.018 525C107.951 523.293 109.205 521.973 110.778 521.04C112.378 520.08 114.138 519.6 116.058 519.6C117.791 519.6 119.298 519.947 120.578 520.64C121.885 521.307 122.925 522.147 123.698 523.16V519.96H128.298V542H123.698V538.72C122.925 539.76 121.871 540.627 120.538 541.32C119.205 542.013 117.685 542.36 115.978 542.36C114.085 542.36 112.351 541.88 110.778 540.92C109.205 539.933 107.951 538.573 107.018 536.84C106.111 535.08 105.658 533.093 105.658 530.88ZM123.698 530.96C123.698 529.44 123.378 528.12 122.738 527C122.125 525.88 121.311 525.027 120.298 524.44C119.285 523.853 118.191 523.56 117.018 523.56C115.845 523.56 114.751 523.853 113.738 524.44C112.725 525 111.898 525.84 111.258 526.96C110.645 528.053 110.338 529.36 110.338 530.88C110.338 532.4 110.645 533.733 111.258 534.88C111.898 536.027 112.725 536.907 113.738 537.52C114.778 538.107 115.871 538.4 117.018 538.4C118.191 538.4 119.285 538.107 120.298 537.52C121.311 536.933 122.125 536.08 122.738 534.96C123.378 533.813 123.698 532.48 123.698 530.96ZM147.008 519.6C148.741 519.6 150.288 519.96 151.648 520.68C153.034 521.4 154.114 522.467 154.888 523.88C155.661 525.293 156.048 527 156.048 529V542H151.528V529.68C151.528 527.707 151.034 526.2 150.048 525.16C149.061 524.093 147.714 523.56 146.008 523.56C144.301 523.56 142.941 524.093 141.928 525.16C140.941 526.2 140.448 527.707 140.448 529.68V542H135.888V519.96H140.448V522.48C141.194 521.573 142.141 520.867 143.288 520.36C144.461 519.853 145.701 519.6 147.008 519.6ZM183.664 530.44C183.664 531.267 183.611 532.013 183.504 532.68H166.664C166.797 534.44 167.451 535.853 168.624 536.92C169.797 537.987 171.237 538.52 172.944 538.52C175.397 538.52 177.131 537.493 178.144 535.44H183.064C182.397 537.467 181.184 539.133 179.424 540.44C177.691 541.72 175.531 542.36 172.944 542.36C170.837 542.36 168.944 541.893 167.264 540.96C165.611 540 164.304 538.667 163.344 536.96C162.411 535.227 161.944 533.227 161.944 530.96C161.944 528.693 162.397 526.707 163.304 525C164.237 523.267 165.531 521.933 167.184 521C168.864 520.067 170.784 519.6 172.944 519.6C175.024 519.6 176.877 520.053 178.504 520.96C180.131 521.867 181.397 523.147 182.304 524.8C183.211 526.427 183.664 528.307 183.664 530.44ZM178.904 529C178.877 527.32 178.277 525.973 177.104 524.96C175.931 523.947 174.477 523.44 172.744 523.44C171.171 523.44 169.824 523.947 168.704 524.96C167.584 525.947 166.917 527.293 166.704 529H178.904ZM237.942 514.2L229.702 542H224.542L218.702 520.96L212.502 542L207.382 542.04L199.502 514.2H204.342L210.102 536.84L216.342 514.2H221.462L227.262 536.72L233.062 514.2H237.942ZM241.783 530.88C241.783 528.667 242.236 526.707 243.143 525C244.076 523.293 245.33 521.973 246.903 521.04C248.503 520.08 250.263 519.6 252.183 519.6C253.916 519.6 255.423 519.947 256.703 520.64C258.01 521.307 259.05 522.147 259.823 523.16V519.96H264.423V542H259.823V538.72C259.05 539.76 257.996 540.627 256.663 541.32C255.33 542.013 253.81 542.36 252.103 542.36C250.21 542.36 248.476 541.88 246.903 540.92C245.33 539.933 244.076 538.573 243.143 536.84C242.236 535.08 241.783 533.093 241.783 530.88ZM259.823 530.96C259.823 529.44 259.503 528.12 258.863 527C258.25 525.88 257.436 525.027 256.423 524.44C255.41 523.853 254.316 523.56 253.143 523.56C251.97 523.56 250.876 523.853 249.863 524.44C248.85 525 248.023 525.84 247.383 526.96C246.77 528.053 246.463 529.36 246.463 530.88C246.463 532.4 246.77 533.733 247.383 534.88C248.023 536.027 248.85 536.907 249.863 537.52C250.903 538.107 251.996 538.4 253.143 538.4C254.316 538.4 255.41 538.107 256.423 537.52C257.436 536.933 258.25 536.08 258.863 534.96C259.503 533.813 259.823 532.48 259.823 530.96ZM276.572 523.16C277.239 522.04 278.119 521.173 279.212 520.56C280.332 519.92 281.652 519.6 283.172 519.6V524.32H282.012C280.226 524.32 278.866 524.773 277.932 525.68C277.026 526.587 276.572 528.16 276.572 530.4V542H272.012V519.96H276.572V523.16ZM293.524 523.16C294.191 522.04 295.071 521.173 296.164 520.56C297.284 519.92 298.604 519.6 300.124 519.6V524.32H298.964C297.177 524.32 295.817 524.773 294.884 525.68C293.977 526.587 293.524 528.16 293.524 530.4V542H288.964V519.96H293.524V523.16ZM326.116 530.44C326.116 531.267 326.062 532.013 325.956 532.68H309.116C309.249 534.44 309.902 535.853 311.076 536.92C312.249 537.987 313.689 538.52 315.396 538.52C317.849 538.52 319.582 537.493 320.596 535.44H325.516C324.849 537.467 323.636 539.133 321.876 540.44C320.142 541.72 317.982 542.36 315.396 542.36C313.289 542.36 311.396 541.893 309.716 540.96C308.062 540 306.756 538.667 305.796 536.96C304.862 535.227 304.396 533.227 304.396 530.96C304.396 528.693 304.849 526.707 305.756 525C306.689 523.267 307.982 521.933 309.636 521C311.316 520.067 313.236 519.6 315.396 519.6C317.476 519.6 319.329 520.053 320.956 520.96C322.582 521.867 323.849 523.147 324.756 524.8C325.662 526.427 326.116 528.307 326.116 530.44ZM321.356 529C321.329 527.32 320.729 525.973 319.556 524.96C318.382 523.947 316.929 523.44 315.196 523.44C313.622 523.44 312.276 523.947 311.156 524.96C310.036 525.947 309.369 527.293 309.156 529H321.356ZM343.323 519.6C345.056 519.6 346.603 519.96 347.963 520.68C349.35 521.4 350.43 522.467 351.203 523.88C351.976 525.293 352.363 527 352.363 529V542H347.843V529.68C347.843 527.707 347.35 526.2 346.363 525.16C345.376 524.093 344.03 523.56 342.323 523.56C340.616 523.56 339.256 524.093 338.243 525.16C337.256 526.2 336.763 527.707 336.763 529.68V542H332.203V519.96H336.763V522.48C337.51 521.573 338.456 520.867 339.603 520.36C340.776 519.853 342.016 519.6 343.323 519.6Z" fill="white"/>
<path d="M806.844 527.04C806.844 522.427 807.617 518.827 809.164 516.24C810.737 513.627 813.43 512.32 817.244 512.32C821.057 512.32 823.737 513.627 825.284 516.24C826.857 518.827 827.644 522.427 827.644 527.04C827.644 531.707 826.857 535.36 825.284 538C823.737 540.613 821.057 541.92 817.244 541.92C813.43 541.92 810.737 540.613 809.164 538C807.617 535.36 806.844 531.707 806.844 527.04ZM823.164 527.04C823.164 524.88 823.017 523.053 822.724 521.56C822.457 520.067 821.897 518.853 821.044 517.92C820.19 516.96 818.924 516.48 817.244 516.48C815.564 516.48 814.297 516.96 813.444 517.92C812.59 518.853 812.017 520.067 811.724 521.56C811.457 523.053 811.324 524.88 811.324 527.04C811.324 529.28 811.457 531.16 811.724 532.68C811.99 534.2 812.55 535.427 813.404 536.36C814.284 537.293 815.564 537.76 817.244 537.76C818.924 537.76 820.19 537.293 821.044 536.36C821.924 535.427 822.497 534.2 822.764 532.68C823.03 531.16 823.164 529.28 823.164 527.04ZM838.989 526.76C836.215 525.373 834.829 523.187 834.829 520.2C834.829 518.76 835.189 517.44 835.909 516.24C836.629 515.04 837.709 514.093 839.149 513.4C840.589 512.68 842.349 512.32 844.429 512.32C846.482 512.32 848.229 512.68 849.669 513.4C851.135 514.093 852.229 515.04 852.949 516.24C853.669 517.44 854.029 518.76 854.029 520.2C854.029 521.693 853.642 523.013 852.869 524.16C852.122 525.28 851.122 526.147 849.869 526.76C851.389 527.32 852.589 528.24 853.469 529.52C854.349 530.773 854.789 532.253 854.789 533.96C854.789 535.693 854.349 537.227 853.469 538.56C852.589 539.893 851.362 540.92 849.789 541.64C848.215 542.36 846.429 542.72 844.429 542.72C842.429 542.72 840.642 542.36 839.069 541.64C837.522 540.92 836.309 539.893 835.429 538.56C834.549 537.227 834.109 535.693 834.109 533.96C834.109 532.227 834.549 530.733 835.429 529.48C836.309 528.227 837.495 527.32 838.989 526.76ZM849.669 520.76C849.669 519.267 849.202 518.12 848.269 517.32C847.335 516.52 846.055 516.12 844.429 516.12C842.829 516.12 841.562 516.52 840.629 517.32C839.695 518.12 839.229 519.28 839.229 520.8C839.229 522.133 839.709 523.227 840.669 524.08C841.655 524.907 842.909 525.32 844.429 525.32C845.949 525.32 847.202 524.893 848.189 524.04C849.175 523.187 849.669 522.093 849.669 520.76ZM844.429 528.76C842.669 528.76 841.229 529.2 840.109 530.08C839.015 530.933 838.469 532.173 838.469 533.8C838.469 535.32 839.002 536.56 840.069 537.52C841.135 538.453 842.589 538.92 844.429 538.92C846.242 538.92 847.669 538.44 848.709 537.48C849.775 536.52 850.309 535.293 850.309 533.8C850.309 532.2 849.762 530.96 848.669 530.08C847.602 529.2 846.189 528.76 844.429 528.76ZM876.577 504.24L865.697 549H861.217L872.057 504.24H876.577ZM885.843 535.8C888.403 533.587 890.417 531.773 891.883 530.36C893.377 528.92 894.617 527.427 895.603 525.88C896.59 524.333 897.083 522.787 897.083 521.24C897.083 519.64 896.697 518.387 895.923 517.48C895.177 516.573 893.99 516.12 892.363 516.12C890.79 516.12 889.563 516.627 888.683 517.64C887.83 518.627 887.377 519.96 887.323 521.64H882.923C883.003 518.6 883.91 516.28 885.643 514.68C887.403 513.053 889.63 512.24 892.323 512.24C895.23 512.24 897.497 513.04 899.123 514.64C900.777 516.24 901.603 518.373 901.603 521.04C901.603 522.96 901.11 524.813 900.123 526.6C899.163 528.36 898.003 529.947 896.643 531.36C895.31 532.747 893.603 534.36 891.523 536.2L889.723 537.8H902.403V541.6H882.963V538.28L885.843 535.8ZM913.689 534.08C913.956 535.413 914.529 536.427 915.409 537.12C916.289 537.813 917.476 538.16 918.969 538.16C920.863 538.16 922.249 537.413 923.129 535.92C924.009 534.427 924.449 531.88 924.449 528.28C923.809 529.187 922.903 529.893 921.729 530.4C920.583 530.88 919.329 531.12 917.969 531.12C916.236 531.12 914.663 530.773 913.249 530.08C911.836 529.36 910.716 528.307 909.889 526.92C909.089 525.507 908.689 523.8 908.689 521.8C908.689 518.867 909.543 516.533 911.249 514.8C912.983 513.04 915.356 512.16 918.369 512.16C921.996 512.16 924.569 513.373 926.089 515.8C927.636 518.2 928.409 521.893 928.409 526.88C928.409 530.32 928.116 533.133 927.529 535.32C926.969 537.507 925.983 539.16 924.569 540.28C923.156 541.4 921.196 541.96 918.689 541.96C915.836 541.96 913.636 541.213 912.089 539.72C910.543 538.227 909.676 536.347 909.489 534.08H913.689ZM918.769 527.28C920.369 527.28 921.623 526.787 922.529 525.8C923.463 524.787 923.929 523.453 923.929 521.8C923.929 519.96 923.436 518.533 922.449 517.52C921.489 516.48 920.169 515.96 918.489 515.96C916.809 515.96 915.476 516.493 914.489 517.56C913.529 518.6 913.049 519.973 913.049 521.68C913.049 523.307 913.516 524.653 914.449 525.72C915.409 526.76 916.849 527.28 918.769 527.28Z" fill="white"/>
<path d="M886.387 96.4124H848.501V165.588H886.387V96.4124Z" fill="#FF5A00"/>
<path d="M851.023 131C851.023 116.946 857.524 104.472 867.5 96.4123C860.158 90.5456 850.897 87 840.795 87C816.863 87 797.5 106.679 797.5 131C797.5 155.321 816.863 175 840.795 175C850.897 175 860.158 171.454 867.5 165.588C857.51 157.642 851.023 145.054 851.023 131Z" fill="#EB001B"/>
<path d="M937.5 131C937.5 155.321 918.137 175 894.205 175C884.103 175 874.842 171.454 867.5 165.588C877.602 157.514 883.977 145.054 883.977 131C883.977 116.946 877.476 104.472 867.5 96.4123C874.828 90.5456 884.089 87 894.191 87C918.137 87 937.5 106.807 937.5 131Z" fill="#F79E1B"/>
<path d="M104.761 157V106.091H126.735C130.514 106.091 133.82 106.837 136.654 108.328C139.488 109.82 141.692 111.916 143.266 114.617C144.84 117.318 145.627 120.475 145.627 124.088C145.627 127.734 144.815 130.891 143.191 133.559C141.584 136.227 139.322 138.282 136.405 139.724C133.505 141.165 130.116 141.886 126.238 141.886H113.113V131.148H123.454C125.078 131.148 126.462 130.866 127.605 130.303C128.765 129.723 129.652 128.902 130.265 127.842C130.895 126.781 131.21 125.53 131.21 124.088C131.21 122.63 130.895 121.387 130.265 120.359C129.652 119.315 128.765 118.52 127.605 117.973C126.462 117.41 125.078 117.128 123.454 117.128H118.582V157H104.761ZM158.428 157.597C155.991 157.597 153.837 157.199 151.964 156.403C150.108 155.591 148.65 154.365 147.589 152.724C146.529 151.084 145.999 148.996 145.999 146.46C145.999 144.372 146.355 142.591 147.067 141.116C147.78 139.624 148.774 138.406 150.05 137.462C151.326 136.517 152.81 135.796 154.5 135.299C156.207 134.802 158.046 134.479 160.018 134.33C162.156 134.164 163.871 133.965 165.164 133.733C166.473 133.484 167.418 133.145 167.998 132.714C168.578 132.266 168.868 131.678 168.868 130.949V130.849C168.868 129.855 168.487 129.093 167.724 128.562C166.962 128.032 165.984 127.767 164.791 127.767C163.482 127.767 162.413 128.057 161.584 128.637C160.772 129.201 160.284 130.071 160.118 131.247H147.49C147.656 128.927 148.393 126.789 149.702 124.834C151.028 122.862 152.959 121.287 155.494 120.111C158.03 118.918 161.195 118.321 164.99 118.321C167.724 118.321 170.177 118.644 172.348 119.29C174.519 119.92 176.367 120.807 177.891 121.95C179.416 123.077 180.576 124.403 181.371 125.928C182.183 127.436 182.589 129.076 182.589 130.849V157H169.763V151.631H169.464C168.702 153.056 167.774 154.208 166.68 155.086C165.603 155.964 164.369 156.602 162.977 157C161.601 157.398 160.085 157.597 158.428 157.597ZM162.902 148.946C163.946 148.946 164.924 148.731 165.835 148.3C166.763 147.869 167.517 147.247 168.097 146.435C168.677 145.623 168.967 144.637 168.967 143.477V140.295C168.603 140.445 168.213 140.585 167.799 140.718C167.401 140.851 166.97 140.975 166.506 141.091C166.059 141.207 165.578 141.315 165.065 141.414C164.567 141.513 164.045 141.605 163.499 141.688C162.438 141.853 161.568 142.127 160.888 142.508C160.226 142.872 159.728 143.328 159.397 143.875C159.082 144.405 158.925 145.002 158.925 145.665C158.925 146.725 159.298 147.537 160.043 148.101C160.789 148.664 161.742 148.946 162.902 148.946ZM194.731 171.318C193.156 171.318 191.657 171.194 190.232 170.945C188.806 170.713 187.555 170.39 186.478 169.976L189.461 160.232C190.588 160.629 191.615 160.886 192.543 161.002C193.488 161.118 194.292 161.052 194.955 160.803C195.634 160.555 196.123 160.082 196.421 159.386L196.719 158.69L183.296 118.818H197.614L203.779 145.267H204.177L210.441 118.818H224.859L210.938 160.182C210.242 162.286 209.231 164.176 207.906 165.849C206.596 167.54 204.873 168.874 202.735 169.852C200.597 170.829 197.929 171.318 194.731 171.318ZM244.594 157.696C240.451 157.696 236.905 156.876 233.955 155.235C231.005 153.578 228.743 151.274 227.169 148.325C225.594 145.358 224.807 141.92 224.807 138.009C224.807 134.098 225.594 130.667 227.169 127.717C228.743 124.751 231.005 122.447 233.955 120.807C236.905 119.15 240.451 118.321 244.594 118.321C248.339 118.321 251.579 119 254.314 120.359C257.065 121.702 259.194 123.607 260.702 126.077C262.21 128.529 262.972 131.413 262.989 134.727H250.262C250.079 132.722 249.499 131.197 248.522 130.153C247.561 129.093 246.318 128.562 244.793 128.562C243.6 128.562 242.556 128.911 241.661 129.607C240.766 130.286 240.07 131.322 239.573 132.714C239.076 134.089 238.827 135.821 238.827 137.909C238.827 139.997 239.076 141.737 239.573 143.129C240.07 144.505 240.766 145.54 241.661 146.237C242.556 146.916 243.6 147.256 244.793 147.256C245.804 147.256 246.699 147.024 247.478 146.56C248.257 146.079 248.886 145.383 249.367 144.472C249.864 143.544 250.162 142.417 250.262 141.091H262.989C262.939 144.455 262.169 147.388 260.677 149.891C259.186 152.376 257.073 154.299 254.338 155.658C251.621 157.017 248.373 157.696 244.594 157.696ZM285.645 157.696C281.502 157.696 277.956 156.876 275.006 155.235C272.056 153.578 269.794 151.274 268.22 148.325C266.646 145.358 265.858 141.92 265.858 138.009C265.858 134.098 266.646 130.667 268.22 127.717C269.794 124.751 272.056 122.447 275.006 120.807C277.956 119.15 281.502 118.321 285.645 118.321C289.788 118.321 293.335 119.15 296.285 120.807C299.234 122.447 301.496 124.751 303.071 127.717C304.645 130.667 305.432 134.098 305.432 138.009C305.432 141.92 304.645 145.358 303.071 148.325C301.496 151.274 299.234 153.578 296.285 155.235C293.335 156.876 289.788 157.696 285.645 157.696ZM285.745 147.554C286.905 147.554 287.907 147.165 288.753 146.386C289.598 145.607 290.252 144.496 290.716 143.055C291.18 141.613 291.412 139.898 291.412 137.909C291.412 135.904 291.18 134.189 290.716 132.763C290.252 131.322 289.598 130.211 288.753 129.433C287.907 128.654 286.905 128.264 285.745 128.264C284.518 128.264 283.466 128.654 282.588 129.433C281.709 130.211 281.038 131.322 280.574 132.763C280.11 134.189 279.878 135.904 279.878 137.909C279.878 139.898 280.11 141.613 280.574 143.055C281.038 144.496 281.709 145.607 282.588 146.386C283.466 147.165 284.518 147.554 285.745 147.554Z" fill="white"/>
</g>
<defs>
<clipPath id="clip0_308_967">
<rect width="1011" height="638" rx="38" fill="white"/>
</clipPath>
</defs>
</svg>
