<svg width="1011" height="638" viewBox="0 0 1011 638" fill="none" xmlns="http://www.w3.org/2000/svg">
<rect width="1011" height="638" rx="38" fill="white"/>
<g clip-path="url(#clip0_308_963)">
<path d="M0 38C0 17.0132 17.0132 0 38 0H973C993.987 0 1011 17.0132 1011 38V600C1011 620.987 993.987 638 973 638H38C17.0132 638 0 620.987 0 600V38Z" fill="url(#paint0_linear_308_963)"/>
<path d="M119.219 1024.13C90.1082 1027.01 68.8005 997.293 80.8652 970.645L629.154 -240.427C641.218 -267.075 677.607 -270.67 694.653 -246.898L1469.33 833.47C1486.37 857.242 1471.29 890.553 1442.18 893.429L119.219 1024.13Z" fill="url(#paint1_linear_308_963)"/>
<path d="M740.537 483.309C769.648 486.185 790.956 456.469 778.891 429.821L352.096 -512.893C340.031 -539.542 303.643 -543.137 286.597 -519.365L-316.42 321.608C-333.466 345.381 -318.385 378.691 -289.275 381.567L740.537 483.309Z" fill="url(#paint2_linear_308_963)"/>
</g>
<circle cx="94" cy="416.5" r="14" fill="white"/>
<circle cx="132" cy="416.5" r="14" fill="white"/>
<circle cx="170" cy="416.5" r="14" fill="white"/>
<circle cx="208" cy="416.5" r="14" fill="white"/>
<circle cx="284" cy="416.5" r="14" fill="white"/>
<circle cx="322" cy="416.5" r="14" fill="white"/>
<circle cx="360" cy="416.5" r="14" fill="white"/>
<circle cx="398" cy="416.5" r="14" fill="white"/>
<circle cx="474" cy="416.5" r="14" fill="white"/>
<circle cx="512" cy="416.5" r="14" fill="white"/>
<circle cx="550" cy="416.5" r="14" fill="white"/>
<circle cx="588" cy="416.5" r="14" fill="white"/>
<path d="M653.354 415.3C653.354 409.533 654.32 405.033 656.254 401.8C658.22 398.533 661.587 396.9 666.354 396.9C671.12 396.9 674.47 398.533 676.404 401.8C678.37 405.033 679.354 409.533 679.354 415.3C679.354 421.133 678.37 425.7 676.404 429C674.47 432.267 671.12 433.9 666.354 433.9C661.587 433.9 658.22 432.267 656.254 429C654.32 425.7 653.354 421.133 653.354 415.3ZM673.754 415.3C673.754 412.6 673.57 410.317 673.204 408.45C672.87 406.583 672.17 405.067 671.104 403.9C670.037 402.7 668.454 402.1 666.354 402.1C664.254 402.1 662.67 402.7 661.604 403.9C660.537 405.067 659.82 406.583 659.454 408.45C659.12 410.317 658.954 412.6 658.954 415.3C658.954 418.1 659.12 420.45 659.454 422.35C659.787 424.25 660.487 425.783 661.554 426.95C662.654 428.117 664.254 428.7 666.354 428.7C668.454 428.7 670.037 428.117 671.104 426.95C672.204 425.783 672.92 424.25 673.254 422.35C673.587 420.45 673.754 418.1 673.754 415.3ZM690.385 415.3C690.385 409.533 691.351 405.033 693.285 401.8C695.251 398.533 698.618 396.9 703.385 396.9C708.151 396.9 711.501 398.533 713.435 401.8C715.401 405.033 716.385 409.533 716.385 415.3C716.385 421.133 715.401 425.7 713.435 429C711.501 432.267 708.151 433.9 703.385 433.9C698.618 433.9 695.251 432.267 693.285 429C691.351 425.7 690.385 421.133 690.385 415.3ZM710.785 415.3C710.785 412.6 710.601 410.317 710.235 408.45C709.901 406.583 709.201 405.067 708.135 403.9C707.068 402.7 705.485 402.1 703.385 402.1C701.285 402.1 699.701 402.7 698.635 403.9C697.568 405.067 696.851 406.583 696.485 408.45C696.151 410.317 695.985 412.6 695.985 415.3C695.985 418.1 696.151 420.45 696.485 422.35C696.818 424.25 697.518 425.783 698.585 426.95C699.685 428.117 701.285 428.7 703.385 428.7C705.485 428.7 707.068 428.117 708.135 426.95C709.235 425.783 709.951 424.25 710.285 422.35C710.618 420.45 710.785 418.1 710.785 415.3ZM726.716 426.4V422.1L743.516 398H750.416V421.45H755.066V426.4H750.416V434H744.816V426.4H726.716ZM745.066 403.8L733.266 421.45H745.066V403.8ZM767.939 426.25C771.139 423.483 773.656 421.217 775.489 419.45C777.356 417.65 778.906 415.783 780.139 413.85C781.372 411.917 781.989 409.983 781.989 408.05C781.989 406.05 781.506 404.483 780.539 403.35C779.606 402.217 778.122 401.65 776.089 401.65C774.122 401.65 772.589 402.283 771.489 403.55C770.422 404.783 769.856 406.45 769.789 408.55H764.289C764.389 404.75 765.522 401.85 767.689 399.85C769.889 397.817 772.672 396.8 776.039 396.8C779.672 396.8 782.506 397.8 784.539 399.8C786.606 401.8 787.639 404.467 787.639 407.8C787.639 410.2 787.022 412.517 785.789 414.75C784.589 416.95 783.139 418.933 781.439 420.7C779.772 422.433 777.639 424.45 775.039 426.75L772.789 428.75H788.639V433.5H764.339V429.35L767.939 426.25Z" fill="white"/>
<path d="M98.16 514.2V534.24C98.16 536.72 97.4 538.68 95.88 540.12C94.3867 541.56 92.4133 542.28 89.96 542.28C87.5067 542.28 85.52 541.56 84 540.12C82.5067 538.68 81.76 536.72 81.76 534.24H86.36C86.3867 535.467 86.6933 536.44 87.28 537.16C87.8933 537.88 88.7867 538.24 89.96 538.24C91.1333 538.24 92.0267 537.88 92.64 537.16C93.2533 536.413 93.56 535.44 93.56 534.24V514.2H98.16ZM105.658 530.88C105.658 528.667 106.111 526.707 107.018 525C107.951 523.293 109.205 521.973 110.778 521.04C112.378 520.08 114.138 519.6 116.058 519.6C117.791 519.6 119.298 519.947 120.578 520.64C121.885 521.307 122.925 522.147 123.698 523.16V519.96H128.298V542H123.698V538.72C122.925 539.76 121.871 540.627 120.538 541.32C119.205 542.013 117.685 542.36 115.978 542.36C114.085 542.36 112.351 541.88 110.778 540.92C109.205 539.933 107.951 538.573 107.018 536.84C106.111 535.08 105.658 533.093 105.658 530.88ZM123.698 530.96C123.698 529.44 123.378 528.12 122.738 527C122.125 525.88 121.311 525.027 120.298 524.44C119.285 523.853 118.191 523.56 117.018 523.56C115.845 523.56 114.751 523.853 113.738 524.44C112.725 525 111.898 525.84 111.258 526.96C110.645 528.053 110.338 529.36 110.338 530.88C110.338 532.4 110.645 533.733 111.258 534.88C111.898 536.027 112.725 536.907 113.738 537.52C114.778 538.107 115.871 538.4 117.018 538.4C118.191 538.4 119.285 538.107 120.298 537.52C121.311 536.933 122.125 536.08 122.738 534.96C123.378 533.813 123.698 532.48 123.698 530.96ZM147.008 519.6C148.741 519.6 150.288 519.96 151.648 520.68C153.034 521.4 154.114 522.467 154.888 523.88C155.661 525.293 156.048 527 156.048 529V542H151.528V529.68C151.528 527.707 151.034 526.2 150.048 525.16C149.061 524.093 147.714 523.56 146.008 523.56C144.301 523.56 142.941 524.093 141.928 525.16C140.941 526.2 140.448 527.707 140.448 529.68V542H135.888V519.96H140.448V522.48C141.194 521.573 142.141 520.867 143.288 520.36C144.461 519.853 145.701 519.6 147.008 519.6ZM183.664 530.44C183.664 531.267 183.611 532.013 183.504 532.68H166.664C166.797 534.44 167.451 535.853 168.624 536.92C169.797 537.987 171.237 538.52 172.944 538.52C175.397 538.52 177.131 537.493 178.144 535.44H183.064C182.397 537.467 181.184 539.133 179.424 540.44C177.691 541.72 175.531 542.36 172.944 542.36C170.837 542.36 168.944 541.893 167.264 540.96C165.611 540 164.304 538.667 163.344 536.96C162.411 535.227 161.944 533.227 161.944 530.96C161.944 528.693 162.397 526.707 163.304 525C164.237 523.267 165.531 521.933 167.184 521C168.864 520.067 170.784 519.6 172.944 519.6C175.024 519.6 176.877 520.053 178.504 520.96C180.131 521.867 181.397 523.147 182.304 524.8C183.211 526.427 183.664 528.307 183.664 530.44ZM178.904 529C178.877 527.32 178.277 525.973 177.104 524.96C175.931 523.947 174.477 523.44 172.744 523.44C171.171 523.44 169.824 523.947 168.704 524.96C167.584 525.947 166.917 527.293 166.704 529H178.904ZM237.942 514.2L229.702 542H224.542L218.702 520.96L212.502 542L207.382 542.04L199.502 514.2H204.342L210.102 536.84L216.342 514.2H221.462L227.262 536.72L233.062 514.2H237.942ZM241.783 530.88C241.783 528.667 242.236 526.707 243.143 525C244.076 523.293 245.33 521.973 246.903 521.04C248.503 520.08 250.263 519.6 252.183 519.6C253.916 519.6 255.423 519.947 256.703 520.64C258.01 521.307 259.05 522.147 259.823 523.16V519.96H264.423V542H259.823V538.72C259.05 539.76 257.996 540.627 256.663 541.32C255.33 542.013 253.81 542.36 252.103 542.36C250.21 542.36 248.476 541.88 246.903 540.92C245.33 539.933 244.076 538.573 243.143 536.84C242.236 535.08 241.783 533.093 241.783 530.88ZM259.823 530.96C259.823 529.44 259.503 528.12 258.863 527C258.25 525.88 257.436 525.027 256.423 524.44C255.41 523.853 254.316 523.56 253.143 523.56C251.97 523.56 250.876 523.853 249.863 524.44C248.85 525 248.023 525.84 247.383 526.96C246.77 528.053 246.463 529.36 246.463 530.88C246.463 532.4 246.77 533.733 247.383 534.88C248.023 536.027 248.85 536.907 249.863 537.52C250.903 538.107 251.996 538.4 253.143 538.4C254.316 538.4 255.41 538.107 256.423 537.52C257.436 536.933 258.25 536.08 258.863 534.96C259.503 533.813 259.823 532.48 259.823 530.96ZM276.572 523.16C277.239 522.04 278.119 521.173 279.212 520.56C280.332 519.92 281.652 519.6 283.172 519.6V524.32H282.012C280.226 524.32 278.866 524.773 277.932 525.68C277.026 526.587 276.572 528.16 276.572 530.4V542H272.012V519.96H276.572V523.16ZM293.524 523.16C294.191 522.04 295.071 521.173 296.164 520.56C297.284 519.92 298.604 519.6 300.124 519.6V524.32H298.964C297.177 524.32 295.817 524.773 294.884 525.68C293.977 526.587 293.524 528.16 293.524 530.4V542H288.964V519.96H293.524V523.16ZM326.116 530.44C326.116 531.267 326.062 532.013 325.956 532.68H309.116C309.249 534.44 309.902 535.853 311.076 536.92C312.249 537.987 313.689 538.52 315.396 538.52C317.849 538.52 319.582 537.493 320.596 535.44H325.516C324.849 537.467 323.636 539.133 321.876 540.44C320.142 541.72 317.982 542.36 315.396 542.36C313.289 542.36 311.396 541.893 309.716 540.96C308.062 540 306.756 538.667 305.796 536.96C304.862 535.227 304.396 533.227 304.396 530.96C304.396 528.693 304.849 526.707 305.756 525C306.689 523.267 307.982 521.933 309.636 521C311.316 520.067 313.236 519.6 315.396 519.6C317.476 519.6 319.329 520.053 320.956 520.96C322.582 521.867 323.849 523.147 324.756 524.8C325.662 526.427 326.116 528.307 326.116 530.44ZM321.356 529C321.329 527.32 320.729 525.973 319.556 524.96C318.382 523.947 316.929 523.44 315.196 523.44C313.622 523.44 312.276 523.947 311.156 524.96C310.036 525.947 309.369 527.293 309.156 529H321.356ZM343.323 519.6C345.056 519.6 346.603 519.96 347.963 520.68C349.35 521.4 350.43 522.467 351.203 523.88C351.976 525.293 352.363 527 352.363 529V542H347.843V529.68C347.843 527.707 347.35 526.2 346.363 525.16C345.376 524.093 344.03 523.56 342.323 523.56C340.616 523.56 339.256 524.093 338.243 525.16C337.256 526.2 336.763 527.707 336.763 529.68V542H332.203V519.96H336.763V522.48C337.51 521.573 338.456 520.867 339.603 520.36C340.776 519.853 342.016 519.6 343.323 519.6Z" fill="white"/>
<path d="M806.844 527.04C806.844 522.427 807.617 518.827 809.164 516.24C810.737 513.627 813.43 512.32 817.244 512.32C821.057 512.32 823.737 513.627 825.284 516.24C826.857 518.827 827.644 522.427 827.644 527.04C827.644 531.707 826.857 535.36 825.284 538C823.737 540.613 821.057 541.92 817.244 541.92C813.43 541.92 810.737 540.613 809.164 538C807.617 535.36 806.844 531.707 806.844 527.04ZM823.164 527.04C823.164 524.88 823.017 523.053 822.724 521.56C822.457 520.067 821.897 518.853 821.044 517.92C820.19 516.96 818.924 516.48 817.244 516.48C815.564 516.48 814.297 516.96 813.444 517.92C812.59 518.853 812.017 520.067 811.724 521.56C811.457 523.053 811.324 524.88 811.324 527.04C811.324 529.28 811.457 531.16 811.724 532.68C811.99 534.2 812.55 535.427 813.404 536.36C814.284 537.293 815.564 537.76 817.244 537.76C818.924 537.76 820.19 537.293 821.044 536.36C821.924 535.427 822.497 534.2 822.764 532.68C823.03 531.16 823.164 529.28 823.164 527.04ZM838.989 526.76C836.215 525.373 834.829 523.187 834.829 520.2C834.829 518.76 835.189 517.44 835.909 516.24C836.629 515.04 837.709 514.093 839.149 513.4C840.589 512.68 842.349 512.32 844.429 512.32C846.482 512.32 848.229 512.68 849.669 513.4C851.135 514.093 852.229 515.04 852.949 516.24C853.669 517.44 854.029 518.76 854.029 520.2C854.029 521.693 853.642 523.013 852.869 524.16C852.122 525.28 851.122 526.147 849.869 526.76C851.389 527.32 852.589 528.24 853.469 529.52C854.349 530.773 854.789 532.253 854.789 533.96C854.789 535.693 854.349 537.227 853.469 538.56C852.589 539.893 851.362 540.92 849.789 541.64C848.215 542.36 846.429 542.72 844.429 542.72C842.429 542.72 840.642 542.36 839.069 541.64C837.522 540.92 836.309 539.893 835.429 538.56C834.549 537.227 834.109 535.693 834.109 533.96C834.109 532.227 834.549 530.733 835.429 529.48C836.309 528.227 837.495 527.32 838.989 526.76ZM849.669 520.76C849.669 519.267 849.202 518.12 848.269 517.32C847.335 516.52 846.055 516.12 844.429 516.12C842.829 516.12 841.562 516.52 840.629 517.32C839.695 518.12 839.229 519.28 839.229 520.8C839.229 522.133 839.709 523.227 840.669 524.08C841.655 524.907 842.909 525.32 844.429 525.32C845.949 525.32 847.202 524.893 848.189 524.04C849.175 523.187 849.669 522.093 849.669 520.76ZM844.429 528.76C842.669 528.76 841.229 529.2 840.109 530.08C839.015 530.933 838.469 532.173 838.469 533.8C838.469 535.32 839.002 536.56 840.069 537.52C841.135 538.453 842.589 538.92 844.429 538.92C846.242 538.92 847.669 538.44 848.709 537.48C849.775 536.52 850.309 535.293 850.309 533.8C850.309 532.2 849.762 530.96 848.669 530.08C847.602 529.2 846.189 528.76 844.429 528.76ZM876.577 504.24L865.697 549H861.217L872.057 504.24H876.577ZM885.843 535.8C888.403 533.587 890.417 531.773 891.883 530.36C893.377 528.92 894.617 527.427 895.603 525.88C896.59 524.333 897.083 522.787 897.083 521.24C897.083 519.64 896.697 518.387 895.923 517.48C895.177 516.573 893.99 516.12 892.363 516.12C890.79 516.12 889.563 516.627 888.683 517.64C887.83 518.627 887.377 519.96 887.323 521.64H882.923C883.003 518.6 883.91 516.28 885.643 514.68C887.403 513.053 889.63 512.24 892.323 512.24C895.23 512.24 897.497 513.04 899.123 514.64C900.777 516.24 901.603 518.373 901.603 521.04C901.603 522.96 901.11 524.813 900.123 526.6C899.163 528.36 898.003 529.947 896.643 531.36C895.31 532.747 893.603 534.36 891.523 536.2L889.723 537.8H902.403V541.6H882.963V538.28L885.843 535.8ZM913.689 534.08C913.956 535.413 914.529 536.427 915.409 537.12C916.289 537.813 917.476 538.16 918.969 538.16C920.863 538.16 922.249 537.413 923.129 535.92C924.009 534.427 924.449 531.88 924.449 528.28C923.809 529.187 922.903 529.893 921.729 530.4C920.583 530.88 919.329 531.12 917.969 531.12C916.236 531.12 914.663 530.773 913.249 530.08C911.836 529.36 910.716 528.307 909.889 526.92C909.089 525.507 908.689 523.8 908.689 521.8C908.689 518.867 909.543 516.533 911.249 514.8C912.983 513.04 915.356 512.16 918.369 512.16C921.996 512.16 924.569 513.373 926.089 515.8C927.636 518.2 928.409 521.893 928.409 526.88C928.409 530.32 928.116 533.133 927.529 535.32C926.969 537.507 925.983 539.16 924.569 540.28C923.156 541.4 921.196 541.96 918.689 541.96C915.836 541.96 913.636 541.213 912.089 539.72C910.543 538.227 909.676 536.347 909.489 534.08H913.689ZM918.769 527.28C920.369 527.28 921.623 526.787 922.529 525.8C923.463 524.787 923.929 523.453 923.929 521.8C923.929 519.96 923.436 518.533 922.449 517.52C921.489 516.48 920.169 515.96 918.489 515.96C916.809 515.96 915.476 516.493 914.489 517.56C913.529 518.6 913.049 519.973 913.049 521.68C913.049 523.307 913.516 524.653 914.449 525.72C915.409 526.76 916.849 527.28 918.769 527.28Z" fill="white"/>
<g clip-path="url(#clip1_308_963)">
<path d="M808.166 164.135H793.18L802.554 106.053H817.539L808.166 164.135Z" fill="white"/>
<path d="M862.493 107.473C859.537 106.298 854.849 105 849.052 105C834.252 105 823.83 112.909 823.767 124.215C823.644 132.558 831.228 137.191 836.901 139.973C842.699 142.815 844.67 144.67 844.67 147.204C844.611 151.095 839.985 152.888 835.67 152.888C829.687 152.888 826.481 151.964 821.609 149.799L819.635 148.871L817.538 161.909C821.053 163.514 827.529 164.938 834.252 165C849.977 165 860.214 157.214 860.335 145.165C860.395 138.553 856.39 133.486 847.756 129.347C842.514 126.689 839.304 124.897 839.304 122.178C839.366 119.706 842.019 117.174 847.936 117.174C852.808 117.05 856.388 118.224 859.1 119.398L860.455 120.015L862.493 107.473Z" fill="white"/>
<path d="M882.411 143.558C883.645 140.222 888.394 127.308 888.394 127.308C888.332 127.432 889.626 123.909 890.366 121.747L891.413 126.752C891.413 126.752 894.251 140.654 894.868 143.558C892.525 143.558 885.371 143.558 882.411 143.558ZM900.91 106.053H889.318C885.743 106.053 883.027 107.103 881.485 110.872L859.225 164.134H874.95C874.95 164.134 877.538 156.965 878.095 155.421C879.82 155.421 895.117 155.421 897.336 155.421C897.766 157.46 899.124 164.134 899.124 164.134H913L900.91 106.053Z" fill="white"/>
<path d="M780.663 106.053L765.986 145.659L764.383 137.626C761.669 128.358 753.16 118.288 743.663 113.281L757.106 164.073H772.954L796.51 106.053H780.663Z" fill="white"/>
<path d="M752.358 106.053H728.247L728 107.227C746.808 112.046 759.265 123.665 764.383 137.629L759.141 110.935C758.278 107.226 755.626 106.175 752.358 106.053Z" fill="white"/>
</g>
<path d="M83.7609 148V97.0909H105.735C109.514 97.0909 112.82 97.8366 115.654 99.3281C118.488 100.82 120.692 102.916 122.266 105.617C123.84 108.318 124.627 111.475 124.627 115.088C124.627 118.734 123.815 121.891 122.191 124.559C120.584 127.227 118.322 129.282 115.405 130.724C112.505 132.165 109.116 132.886 105.238 132.886H92.1132V122.148H102.454C104.078 122.148 105.462 121.866 106.605 121.303C107.765 120.723 108.652 119.902 109.265 118.842C109.895 117.781 110.21 116.53 110.21 115.088C110.21 113.63 109.895 112.387 109.265 111.359C108.652 110.315 107.765 109.52 106.605 108.973C105.462 108.41 104.078 108.128 102.454 108.128H97.582V148H83.7609ZM137.428 148.597C134.991 148.597 132.837 148.199 130.964 147.403C129.108 146.591 127.65 145.365 126.589 143.724C125.529 142.084 124.999 139.996 124.999 137.46C124.999 135.372 125.355 133.591 126.067 132.116C126.78 130.624 127.774 129.406 129.05 128.462C130.326 127.517 131.81 126.796 133.5 126.299C135.207 125.802 137.046 125.479 139.018 125.33C141.156 125.164 142.871 124.965 144.164 124.733C145.473 124.484 146.418 124.145 146.998 123.714C147.578 123.266 147.868 122.678 147.868 121.949V121.849C147.868 120.855 147.487 120.093 146.724 119.562C145.962 119.032 144.984 118.767 143.791 118.767C142.482 118.767 141.413 119.057 140.584 119.637C139.772 120.201 139.284 121.071 139.118 122.247H126.49C126.656 119.927 127.393 117.789 128.702 115.834C130.028 113.862 131.959 112.287 134.494 111.111C137.03 109.918 140.195 109.321 143.99 109.321C146.724 109.321 149.177 109.644 151.348 110.29C153.519 110.92 155.367 111.807 156.891 112.95C158.416 114.077 159.576 115.403 160.371 116.928C161.183 118.436 161.589 120.076 161.589 121.849V148H148.763V142.631H148.464C147.702 144.056 146.774 145.208 145.68 146.086C144.603 146.964 143.369 147.602 141.977 148C140.601 148.398 139.085 148.597 137.428 148.597ZM141.902 139.946C142.946 139.946 143.924 139.731 144.835 139.3C145.763 138.869 146.517 138.247 147.097 137.435C147.677 136.623 147.967 135.637 147.967 134.477V131.295C147.603 131.445 147.213 131.585 146.799 131.718C146.401 131.851 145.97 131.975 145.506 132.091C145.059 132.207 144.578 132.315 144.065 132.414C143.567 132.513 143.045 132.605 142.499 132.688C141.438 132.853 140.568 133.127 139.888 133.508C139.226 133.872 138.728 134.328 138.397 134.875C138.082 135.405 137.925 136.002 137.925 136.665C137.925 137.725 138.298 138.537 139.043 139.101C139.789 139.664 140.742 139.946 141.902 139.946ZM173.731 162.318C172.156 162.318 170.657 162.194 169.232 161.945C167.806 161.713 166.555 161.39 165.478 160.976L168.461 151.232C169.588 151.629 170.615 151.886 171.543 152.002C172.488 152.118 173.292 152.052 173.955 151.803C174.634 151.555 175.123 151.082 175.421 150.386L175.719 149.69L162.296 109.818H176.614L182.779 136.267H183.177L189.441 109.818H203.859L189.938 151.182C189.242 153.286 188.231 155.176 186.906 156.849C185.596 158.54 183.873 159.874 181.735 160.852C179.597 161.829 176.929 162.318 173.731 162.318ZM223.594 148.696C219.451 148.696 215.905 147.876 212.955 146.235C210.005 144.578 207.743 142.274 206.169 139.325C204.594 136.358 203.807 132.92 203.807 129.009C203.807 125.098 204.594 121.667 206.169 118.717C207.743 115.751 210.005 113.447 212.955 111.807C215.905 110.15 219.451 109.321 223.594 109.321C227.339 109.321 230.579 110 233.314 111.359C236.065 112.702 238.194 114.607 239.702 117.077C241.21 119.529 241.972 122.413 241.989 125.727H229.262C229.079 123.722 228.499 122.197 227.522 121.153C226.561 120.093 225.318 119.562 223.793 119.562C222.6 119.562 221.556 119.911 220.661 120.607C219.766 121.286 219.07 122.322 218.573 123.714C218.076 125.089 217.827 126.821 217.827 128.909C217.827 130.997 218.076 132.737 218.573 134.129C219.07 135.505 219.766 136.54 220.661 137.237C221.556 137.916 222.6 138.256 223.793 138.256C224.804 138.256 225.699 138.024 226.478 137.56C227.257 137.079 227.886 136.383 228.367 135.472C228.864 134.544 229.162 133.417 229.262 132.091H241.989C241.939 135.455 241.169 138.388 239.677 140.891C238.186 143.376 236.073 145.299 233.338 146.658C230.621 148.017 227.373 148.696 223.594 148.696ZM264.645 148.696C260.502 148.696 256.956 147.876 254.006 146.235C251.056 144.578 248.794 142.274 247.22 139.325C245.646 136.358 244.858 132.92 244.858 129.009C244.858 125.098 245.646 121.667 247.22 118.717C248.794 115.751 251.056 113.447 254.006 111.807C256.956 110.15 260.502 109.321 264.645 109.321C268.788 109.321 272.335 110.15 275.285 111.807C278.234 113.447 280.496 115.751 282.071 118.717C283.645 121.667 284.432 125.098 284.432 129.009C284.432 132.92 283.645 136.358 282.071 139.325C280.496 142.274 278.234 144.578 275.285 146.235C272.335 147.876 268.788 148.696 264.645 148.696ZM264.745 138.554C265.905 138.554 266.907 138.165 267.753 137.386C268.598 136.607 269.252 135.496 269.716 134.055C270.18 132.613 270.412 130.898 270.412 128.909C270.412 126.904 270.18 125.189 269.716 123.763C269.252 122.322 268.598 121.211 267.753 120.433C266.907 119.654 265.905 119.264 264.745 119.264C263.518 119.264 262.466 119.654 261.588 120.433C260.709 121.211 260.038 122.322 259.574 123.763C259.11 125.189 258.878 126.904 258.878 128.909C258.878 130.898 259.11 132.613 259.574 134.055C260.038 135.496 260.709 136.607 261.588 137.386C262.466 138.165 263.518 138.554 264.745 138.554Z" fill="white"/>
<defs>
<linearGradient id="paint0_linear_308_963" x1="-77.5" y1="623" x2="1047" y2="1.6492e-05" gradientUnits="userSpaceOnUse">
<stop stop-color="#E3727D"/>
<stop offset="1" stop-color="#8E54E9"/>
</linearGradient>
<linearGradient id="paint1_linear_308_963" x1="-222.207" y1="1748.43" x2="1236.13" y2="840.16" gradientUnits="userSpaceOnUse">
<stop stop-color="#850707"/>
<stop offset="1" stop-color="#E36262" stop-opacity="0"/>
</linearGradient>
<linearGradient id="paint2_linear_308_963" x1="1026.33" y1="1062.88" x2="-137.972" y2="337.734" gradientUnits="userSpaceOnUse">
<stop stop-color="#850707"/>
<stop offset="1" stop-color="#8E54E9" stop-opacity="0"/>
</linearGradient>
<clipPath id="clip0_308_963">
<path d="M0 38C0 17.0132 17.0132 0 38 0H973C993.987 0 1011 17.0132 1011 38V600C1011 620.987 993.987 638 973 638H38C17.0132 638 0 620.987 0 600V38Z" fill="white"/>
</clipPath>
<clipPath id="clip1_308_963">
<rect width="185" height="60" fill="white" transform="translate(728 105)"/>
</clipPath>
</defs>
</svg>
